<svg class="animated" id="freepik_stories-creativity" xmlns="http://www.w3.org/2000/svg" viewBox="0 0 500 500" version="1.1" xmlns:xlink="http://www.w3.org/1999/xlink" xmlns:svgjs="http://svgjs.com/svgjs"><style>svg#freepik_stories-creativity:not(.animated) .animable {opacity: 0;}svg#freepik_stories-creativity.animated #freepik--background-complete--inject-185 {animation: 2s 1 forwards cubic-bezier(.36,-0.01,.5,1.38) fadeIn;animation-delay: 0s;}svg#freepik_stories-creativity.animated #freepik--Floor--inject-185 {animation: 2s 1 forwards cubic-bezier(.36,-0.01,.5,1.38) zoomIn;animation-delay: 0s;}svg#freepik_stories-creativity.animated #freepik--Shadow--inject-185 {animation: 2s 1 forwards cubic-bezier(.36,-0.01,.5,1.38) fadeIn;animation-delay: 0s;}svg#freepik_stories-creativity.animated #freepik--Rocket--inject-185 {animation: 2s 1 forwards cubic-bezier(.36,-0.01,.5,1.38) zoomOut,1.5s Infinite  linear wind;animation-delay: 0s,2s;}svg#freepik_stories-creativity.animated #freepik--paper-plane--inject-185 {animation: 2s 1 forwards cubic-bezier(.36,-0.01,.5,1.38) lightSpeedRight,3s Infinite  linear floating;animation-delay: 0s,2s;}svg#freepik_stories-creativity.animated #freepik--Character--inject-185 {animation: 2s 1 forwards cubic-bezier(.36,-0.01,.5,1.38) zoomIn;animation-delay: 0s;}svg#freepik_stories-creativity.animated #freepik--Painting--inject-185 {animation: 2s 1 forwards cubic-bezier(.36,-0.01,.5,1.38) slideRight;animation-delay: 0s;}svg#freepik_stories-creativity.animated #freepik--musical-notes--inject-185 {animation: 2s 1 forwards cubic-bezier(.36,-0.01,.5,1.38) lightSpeedRight;animation-delay: 0s;}svg#freepik_stories-creativity.animated #freepik--light-bulb--inject-185 {animation: 2s 1 forwards cubic-bezier(.36,-0.01,.5,1.38) slideUp,6s Infinite  linear heartbeat;animation-delay: 0s,2s;}            @keyframes fadeIn {                0% {                    opacity: 0;                }                100% {                    opacity: 1;                }            }                    @keyframes zoomIn {                0% {                    opacity: 0;                    transform: scale(0.5);                }                100% {                    opacity: 1;                    transform: scale(1);                }            }                    @keyframes zoomOut {                0% {                    opacity: 0;                    transform: scale(1.5);                }                100% {                    opacity: 1;                    transform: scale(1);                }            }                    @keyframes wind {                0% {                    transform: rotate( 0deg );                }                25% {                    transform: rotate( 1deg );                }                75% {                    transform: rotate( -1deg );                }            }                    @keyframes lightSpeedRight {              from {                transform: translate3d(50%, 0, 0) skewX(-20deg);                opacity: 0;              }              60% {                transform: skewX(10deg);                opacity: 1;              }              80% {                transform: skewX(-2deg);              }              to {                opacity: 1;                transform: translate3d(0, 0, 0);              }            }                    @keyframes floating {                0% {                    opacity: 1;                    transform: translateY(0px);                }                50% {                    transform: translateY(-10px);                }                100% {                    opacity: 1;                    transform: translateY(0px);                }            }                    @keyframes slideRight {                0% {                    opacity: 0;                    transform: translateX(30px);                }                100% {                    opacity: 1;                    transform: translateX(0);                }            }                    @keyframes slideUp {                0% {                    opacity: 0;                    transform: translateY(30px);                }                100% {                    opacity: 1;                    transform: inherit;                }            }                    @keyframes heartbeat {                0% {                    transform: scale(1);                }                10% {                    transform: scale(1.1);                }                30% {                    transform: scale(1);                }                40% {                    transform: scale(1);                }                50% {                    transform: scale(1.1);                }                60% {                    transform: scale(1);                }                100% {                    transform: scale(1);                }            }        </style><g id="freepik--background-complete--inject-185" class="animable" style="transform-origin: 250px 201.225px;"><path d="M341.59,360.09H445.11s-5.15-6.7-10.82-7.54c0,0-11-32.86-29.52-33.09-17.17-.22-24.06,20.2-24.06,20.2s-8-9.16-15.56-5-11.91,16.18-11.91,16.18S344.69,355.48,341.59,360.09Z" style="fill: rgb(235, 235, 235); transform-origin: 393.35px 339.774px;" id="elgm9rqx31zig" class="animable"></path><path d="M185.8,232.38H54.89s0-8.36,18-10c0,0,16.46-36.56,41.6-31.64,15.66,3,23.66,24.55,23.66,24.55s11.83-16.92,21.29-13.64,15.08,21.28,15.08,21.28S184.32,227.66,185.8,232.38Z" style="fill: rgb(235, 235, 235); transform-origin: 120.345px 211.332px;" id="eleqa6s5b2u2t" class="animable"></path><path d="M439.44,204.14h-89s8.4-7.82,12.13-7.82,14.63-26.25,28.55-25.13,21.31,20.66,21.31,20.66S429.35,186.55,439.44,204.14Z" style="fill: rgb(235, 235, 235); transform-origin: 394.94px 187.648px;" id="elv48o1gthqz" class="animable"></path><path d="M241.63,311.28H165.5s3.79-4.93,8-5.55c0,0,8.12-24.16,21.7-24.33,12.63-.16,17.7,14.86,17.7,14.86s5.85-6.74,11.44-3.66,8.76,11.9,8.76,11.9S239.34,307.89,241.63,311.28Z" style="fill: rgb(235, 235, 235); transform-origin: 203.565px 296.339px;" id="el44aavw6nblz" class="animable"></path><path d="M175.46,137.93H279s-5.14-6.7-10.82-7.54c0,0-11-32.86-29.51-33.09-17.18-.22-24.07,20.2-24.07,20.2s-8-9.16-15.56-5-11.9,16.18-11.9,16.18S178.56,133.32,175.46,137.93Z" style="fill: rgb(235, 235, 235); transform-origin: 227.23px 117.614px;" id="elo59likiaid8" class="animable"></path><path d="M362.1,85.31c0,15.12-11.21,31.15-20.5,44-3.73,5.17-7.08,9.95-9.52,13.49-2.59,3.74-4.19,6.11-4.19,6.11H310.4s-1.6-2.37-4.19-6.11c-2.44-3.54-5.79-8.32-9.52-13.49-9.29-12.87-20.5-28.9-20.5-44,0-24.7,18.38-40.8,38.78-42.75l.21,0c1.31-.11,2.64-.17,4-.17s2.66.06,4,.17l.21,0C343.72,44.51,362.1,60.61,362.1,85.31Z" style="fill: rgb(235, 235, 235); transform-origin: 319.145px 95.65px;" id="el4z5ezi3ny39" class="animable"></path><path d="M322.15,142.82c-.33,2-.68,4-1,6.11h-3.91c-.37-2.08-.72-4.11-1.05-6.11-14.31-86.2,3-100.46,3-100.46S336.46,56.62,322.15,142.82Z" style="fill: rgb(255, 255, 255); transform-origin: 319.174px 95.645px;" id="ele2fk1uh2f4j" class="animable"></path><path d="M312.69,142.82c1.61,3.84,2.69,6.11,2.69,6.11h-2.29s-1.47-2.28-3.83-6.11c-1.7-2.79-3.87-6.4-6.28-10.58-7.87-13.7-18-30.68-16.09-49.63,2.6-26.24,24.79-38.39,28.08-40l.41-.2-.2.17c-1.88,1.72-16.68,16.1-16.68,42.64C298.5,106.34,307.92,131.47,312.69,142.82Z" style="fill: rgb(255, 255, 255); transform-origin: 301.018px 95.67px;" id="elqwspb8xgbz" class="animable"></path><path d="M335.31,132.24c-2.41,4.18-4.58,7.79-6.28,10.58-2.36,3.83-3.83,6.11-3.83,6.11h-2.29s1.08-2.27,2.69-6.11c4.77-11.35,14.19-36.48,14.19-57.65,0-26.54-14.8-40.92-16.68-42.64l-.2-.17.41.2c3.29,1.66,25.48,13.81,28.08,40.05C353.28,101.56,343.18,118.54,335.31,132.24Z" style="fill: rgb(255, 255, 255); transform-origin: 337.269px 95.645px;" id="elgawh81ipg6e" class="animable"></path><path d="M332.08,142.82c-2.59,3.74-4.19,6.11-4.19,6.11H310.4s-1.6-2.37-4.19-6.11Z" style="fill: rgb(219, 219, 219); transform-origin: 319.145px 145.875px;" id="elqr3c9pdwq5e" class="animable"></path><g id="el09xna4goqr5q"><rect x="300.88" y="106.58" width="1" height="60.84" style="fill: rgb(219, 219, 219); transform-origin: 301.38px 137px; transform: rotate(-16.88deg);" class="animable"></rect></g><g id="ele0bw5zcmi14"><rect x="311.68" y="107.83" width="1" height="58.35" style="fill: rgb(219, 219, 219); transform-origin: 312.18px 137.005px; transform: rotate(-3.86deg);" class="animable"></rect></g><g id="elbkdsodcni1s"><rect x="306.49" y="136.5" width="60.84" height="1" style="fill: rgb(219, 219, 219); transform-origin: 336.91px 137px; transform: rotate(-73.14deg);" class="animable"></rect></g><g id="el3wvb59raxvf"><rect x="296.93" y="136.5" width="58.35" height="1" style="fill: rgb(219, 219, 219); transform-origin: 326.105px 137px; transform: rotate(-86.14deg);" class="animable"></rect></g><rect x="281.44" y="107.46" width="75.4" height="2" style="fill: rgb(219, 219, 219); transform-origin: 319.14px 108.46px;" id="ele4slr6ev93" class="animable"></rect><polygon points="328.94 166.34 328.52 171.39 327.58 182.76 310.71 182.76 309.77 171.39 309.35 166.34 328.94 166.34" style="fill: rgb(235, 235, 235); transform-origin: 319.145px 174.55px;" id="elbqu2wlws7ol" class="animable"></polygon><polygon points="328.94 166.34 328.52 171.39 309.77 171.39 309.35 166.34 328.94 166.34" style="fill: rgb(219, 219, 219); transform-origin: 319.145px 168.865px;" id="ele1wryx6dsq6" class="animable"></polygon><rect x="308.37" y="164.91" width="21.55" height="2.86" style="fill: rgb(235, 235, 235); transform-origin: 319.145px 166.34px;" id="eluxh86qotj78" class="animable"></rect></g><g id="freepik--Floor--inject-185" class="animable" style="transform-origin: 250px 409.91px;"><polygon points="63.99 409.91 110.49 409.67 157 409.58 250 409.41 343 409.58 389.51 409.67 436.01 409.91 389.51 410.15 343 410.24 250 410.41 157 410.24 110.49 410.15 63.99 409.91" style="fill: rgb(38, 50, 56); transform-origin: 250px 409.91px;" id="elkn4noq34d8" class="animable"></polygon></g><g id="freepik--Shadow--inject-185" class="animable" style="transform-origin: 250px 459.61px;"><ellipse cx="250" cy="459.61" rx="174.03" ry="19.49" style="fill: rgb(235, 235, 235); transform-origin: 250px 459.61px;" id="elh4ybuueaeyv" class="animable"></ellipse></g><g id="freepik--Rocket--inject-185" class="animable animator-active" style="transform-origin: 141.032px 87.3947px;"><path d="M136.44,67.13c-.33-.24-16.53-3.33-27.15,10-9.77,12.25-9.62,30.63-7.91,30.65,2.09,0,5.4-9.61,14.59-16.74,3.26-2.53,9.5-2.39,9.5-2.39Z" style="fill: rgb(255, 199, 39); transform-origin: 118.464px 87.2169px;" id="eluwg1xjngu5" class="animable"></path><path d="M167.41,89.32c.33.23,8.46,14.58-.74,28.92-8.46,13.19-25.92,19-26.48,17.34-.68-2,7.36-8.2,11.16-19.2,1.35-3.9-.79-9.76-.79-9.76Z" style="fill: rgb(255, 199, 39); transform-origin: 155.595px 112.588px;" id="el992z1y751zf" class="animable"></path><path d="M139.53,115.81l-19.09-13.68s.85-20.22,13.66-35.88a87,87,0,0,1,22.71-19c10.9-6.47,20.81-9.49,23-7.9s2.54,12-.07,24.35a87.38,87.38,0,0,1-10.65,27.59C158.4,108.5,139.53,115.81,139.53,115.81Z" style="fill: rgb(235, 235, 235); transform-origin: 151.008px 77.3713px;" id="eldcgw9ozvv97" class="animable"></path><g id="el5yx16xuy4lg"><rect x="118.27" y="108.4" width="19.89" height="6.04" style="fill: rgb(255, 199, 39); transform-origin: 128.215px 111.42px; transform: rotate(35.62deg);" class="animable"></rect></g><path d="M163.24,82.46a11.6,11.6,0,1,1-2.67-16.18A11.59,11.59,0,0,1,163.24,82.46Z" style="fill: rgb(255, 199, 39); transform-origin: 153.811px 75.706px;" id="eljl3m2cdq5ae" class="animable"></path><circle cx="153.82" cy="75.71" r="8.04" style="fill: rgb(166, 166, 166); transform-origin: 153.82px 75.71px;" id="eldnfcok0v5qu" class="animable"></circle><path d="M179.77,63.75l-23-16.45c10.9-6.47,20.81-9.49,23-7.9S182.38,51.35,179.77,63.75Z" style="fill: rgb(255, 199, 39); transform-origin: 169.172px 51.3663px;" id="elxpdw8u2tc8p" class="animable"></path><path d="M161.62,47.67a.85.85,0,0,1-1.19.19.85.85,0,1,1,1-1.38A.84.84,0,0,1,161.62,47.67Z" style="fill: rgb(235, 235, 235); transform-origin: 160.932px 47.1704px;" id="elvurz5sz68yq" class="animable"></path><path d="M166,50.83a.85.85,0,0,1-1.19.19.85.85,0,1,1,1-1.38A.84.84,0,0,1,166,50.83Z" style="fill: rgb(235, 235, 235); transform-origin: 165.312px 50.3304px;" id="eln5wvabqbcp" class="animable"></path><path d="M170.44,54a.85.85,0,0,1-1.19.19.85.85,0,1,1,1-1.38A.85.85,0,0,1,170.44,54Z" style="fill: rgb(235, 235, 235); transform-origin: 169.75px 53.5004px;" id="elmga4222454" class="animable"></path><path d="M174.85,57.15a.85.85,0,0,1-1.19.19.85.85,0,1,1,1-1.38A.85.85,0,0,1,174.85,57.15Z" style="fill: rgb(235, 235, 235); transform-origin: 174.16px 56.6504px;" id="elesuqya7ky6e" class="animable"></path><path d="M179.26,60.31a.86.86,0,0,1-1.19.2.87.87,0,0,1-.2-1.2.86.86,0,0,1,1.2-.19A.85.85,0,0,1,179.26,60.31Z" style="fill: rgb(235, 235, 235); transform-origin: 178.568px 59.811px;" id="eljjiv9akd1b" class="animable"></path></g><g id="freepik--paper-plane--inject-185" class="animable" style="transform-origin: 313.955px 196.155px;"><path d="M168.17,236.19c0-.68-.07-1.36-.07-2h.75c0,.64,0,1.3.07,2Z" style="fill: rgb(38, 50, 56); transform-origin: 168.51px 235.19px;" id="elwcn0zorl0p8" class="animable"></path><path d="M240.27,290.12h-1.19v-.75c1.33,0,2.66,0,4,0l0,.75C242.17,290.1,241.22,290.12,240.27,290.12Zm-6.24-.25c-1.34-.11-2.7-.26-4-.44l.1-.74c1.32.18,2.66.32,4,.43Zm14.15-.16-.08-.74c1.32-.14,2.66-.31,4-.51l.11.74C250.86,289.4,249.51,289.58,248.18,289.71ZM225,288.59c-1.3-.26-2.63-.57-3.94-.9l.18-.73c1.3.33,2.62.64,3.91.9Zm32.15-.32-.16-.74c1.29-.28,2.6-.6,3.9-1l.19.73C259.78,287.65,258.46,288,257.16,288.27Zm-41-2c-1.28-.41-2.56-.87-3.82-1.35l.27-.7c1.24.48,2.51.93,3.78,1.34Zm49.72-.45-.24-.71c1.26-.42,2.53-.88,3.77-1.37l.28.7C268.48,284.93,267.2,285.39,265.93,285.82ZM207.73,283c-1.22-.55-2.44-1.15-3.64-1.77l.35-.67c1.18.62,2.4,1.21,3.6,1.76Zm66.66-.5-.31-.68c1.2-.56,2.4-1.16,3.56-1.8l.36.66C276.82,281.28,275.61,281.89,274.39,282.46Zm-74.72-3.74c-1.15-.7-2.3-1.43-3.41-2.17l.41-.63c1.1.74,2.24,1.47,3.39,2.16Zm82.67-.67-.41-.63c1.09-.72,2.2-1.49,3.28-2.29l.45.6C284.56,276.54,283.45,277.32,282.34,278.05Zm-90.2-4.45c-1.06-.82-2.12-1.68-3.15-2.55l.49-.57c1,.87,2.06,1.71,3.12,2.52Zm97.45-1-.49-.57c1-.85,2-1.76,3-2.69l.52.54C291.6,270.79,290.59,271.71,289.59,272.57Zm-104.35-4.92c-1-.94-1.92-1.92-2.82-2.9l.55-.51c.89,1,1.84,1.94,2.8,2.87Zm110.88-1.41-.55-.51c.88-1,1.77-2,2.65-3l.57.49C297.9,264.26,297,265.28,296.12,266.24Zm-117-5.33c-.84-1.07-1.66-2.16-2.42-3.25l.61-.43c.75,1.08,1.56,2.16,2.4,3.21ZM302,259.27l-.59-.46c.79-1,1.59-2.12,2.38-3.23l.61.43C303.56,257.13,302.75,258.23,302,259.27Zm-128-5.88c-.69-1.19-1.33-2.4-1.9-3.58l.67-.33c.56,1.17,1.19,2.36,1.88,3.54Zm133.24-1.54-.63-.42c.73-1.11,1.46-2.24,2.17-3.38l.64.39C308.66,249.59,307.93,250.73,307.2,251.85Zm-137.09-6.73a38.78,38.78,0,0,1-1.15-3.9l.73-.18a39.18,39.18,0,0,0,1.12,3.83Zm141.87-1-.64-.38c.67-1.15,1.34-2.31,2-3.49l.65.37C313.33,241.8,312.66,243,312,244.12Zm4.45-7.92-.66-.36c.63-1.17,1.26-2.36,1.89-3.55l.66.35Zm4.21-8-.67-.34,1.83-3.59.67.33Q321.56,226.38,320.64,228.16Zm4.09-8.1-.67-.34,1.8-3.6.67.33Zm4.06-8.11-.67-.34,1.81-3.6.67.34Zm4.1-8.09-.66-.34c.61-1.19,1.23-2.38,1.86-3.58l.67.35C334.13,201.48,333.51,202.67,332.89,203.86Zm4.24-8-.66-.36c.64-1.17,1.28-2.35,1.94-3.52l.65.37C338.41,193.51,337.76,194.68,337.13,195.85Zm4.41-7.88-.65-.37c.68-1.16,1.36-2.32,2.05-3.47l.64.39Q342.54,186.24,341.54,188Zm4.68-7.72-.64-.4c.72-1.13,1.45-2.26,2.19-3.38l.62.42C347.66,178,346.93,179.13,346.22,180.25Zm5-7.52-.61-.43c.77-1.1,1.55-2.2,2.35-3.28l.6.44Q352.38,171.08,351.22,172.73Zm5.38-7.27L356,165c.83-1.06,1.68-2.1,2.54-3.14l.58.48C358.27,163.37,357.43,164.41,356.6,165.46Zm5.8-6.93-.56-.5q1.34-1.5,2.73-3l.54.51C364.19,156.55,363.29,157.53,362.4,158.53Zm6.23-6.54-.52-.53c1-.94,1.94-1.87,2.93-2.78l.51.55C370.56,150.14,369.58,151.06,368.63,152Zm6.68-6.07-.48-.57c1-.87,2.08-1.72,3.13-2.55l.46.59C377.38,144.21,376.33,145.06,375.31,145.92Zm7.12-5.55-.44-.61c1.09-.78,2.21-1.56,3.32-2.3l.42.62C384.62,138.82,383.51,139.59,382.43,140.37Zm7.53-5-.4-.64c1.15-.69,2.33-1.38,3.49-2l.37.66C392.26,134,391.1,134.69,390,135.38Z" style="fill: rgb(38, 50, 56); transform-origin: 281.23px 211.45px;" id="elgtkmsz43jft" class="animable"></path><path d="M398,130.89l-.34-.67c.59-.3,1.19-.6,1.8-.89l.33.67Z" style="fill: rgb(38, 50, 56); transform-origin: 398.725px 130.11px;" id="el9616zcgyoym" class="animable"></path><polygon points="395.27 117.42 388.2 136.85 403.05 125.25 459.81 104.66 395.27 117.42" style="fill: rgb(255, 199, 39); transform-origin: 424.005px 120.755px;" id="elvqom9euvxgk" class="animable"></polygon><g id="elznqzysl5zk"><polygon points="395.27 117.42 388.2 136.85 403.05 125.25 459.81 104.66 395.27 117.42" style="fill: rgb(34, 34, 33); opacity: 0.2; transform-origin: 424.005px 120.755px;" class="animable"></polygon></g><polygon points="404.95 129.78 388.2 136.85 403.05 125.25 404.95 129.78" style="fill: rgb(38, 50, 56); transform-origin: 396.575px 131.05px;" id="eln8spbcjvq0b" class="animable"></polygon><polygon points="403.05 125.25 459.81 104.66 413.25 150.1 403.05 125.25" style="fill: rgb(255, 199, 39); transform-origin: 431.43px 127.38px;" id="el9kcbr9vb7gw" class="animable"></polygon><polygon points="395.27 117.42 371.68 102.19 459.81 104.66 395.27 117.42" style="fill: rgb(255, 199, 39); transform-origin: 415.745px 109.805px;" id="elkr7zq41tk8c" class="animable"></polygon></g><g id="freepik--Character--inject-185" class="animable" style="transform-origin: 282.061px 287.688px;"><path d="M266.93,218.13s-6.11,54.52-10.3,89.91c-.76,6.39-1.45,12.16-2,16.86-.79,6.36-1.38,10.79-1.65,12.23-.24,1.23-.16,6.13-.11,13,0,3.87,0,8.37,0,13.2-.22,18.65-.17,43.37-.12,58.87,0,8.83-.3,14.67-.3,14.67H210.21s-.12-5.68-.22-14.67c-.27-24.38-.43-73.07,2.12-98.82C215.65,287.63,227,218.13,227,218.13Z" style="fill: rgb(255, 196, 192); transform-origin: 238.388px 327.5px;" id="ely0ax119xpql" class="animable"></path><path d="M180.43,470.71c2.29.76,67.65.57,70.14-1,.94-.59,1.47-10.12,1.78-21.64q.1-3.74.16-7.67c.05-3.09.09-6.22.11-9.26.08-13.65-.11-25.67-.11-25.67H210l0,25.67v9.26l.22,7.67s-25,11.27-27.53,13.3S178.15,470,180.43,470.71Z" style="fill: rgb(255, 196, 192); transform-origin: 216.037px 438.306px;" id="elycy6eg3dk9i" class="animable"></path><path d="M180.43,470.71c2.29.76,67.65.57,70.14-1,.94-.59,1.47-10.12,1.78-21.64q.1-3.74.16-7.67c.05-3.09.09-6.22.11-9.26H210v9.26l.22,7.67s-25,11.27-27.53,13.3S178.15,470,180.43,470.71Z" style="fill: rgb(255, 255, 255); transform-origin: 216.027px 451.141px;" id="el9lmdnmndmnr" class="animable"></path><path d="M180.23,470.81c1.49.49,66.62,1.57,70.53-1,1.14-.76,1.7-14.72,2-29.47H210l.22,7.71s-25.13,11.33-27.69,13.37S177.94,470,180.23,470.81Z" style="fill: rgb(255, 199, 39); transform-origin: 215.996px 455.899px;" id="elpxax1ix5wsm" class="animable"></path><path d="M181.17,468.18c11-.31,55.47-.49,66.39.05.09,0,.09.07,0,.07-10.92.54-55.38.36-66.39.06C180.93,468.35,180.93,468.18,181.17,468.18Z" style="fill: rgb(38, 50, 56); transform-origin: 214.309px 468.265px;" id="elpxzpan6lcl" class="animable"></path><path d="M208.62,445.59c4.33-.83,9.63-.17,13,2.9.12.12-.05.3-.19.26a61.57,61.57,0,0,0-12.75-2.62A.27.27,0,0,1,208.62,445.59Z" style="fill: rgb(38, 50, 56); transform-origin: 215.02px 447.008px;" id="el21otbpg9ajo" class="animable"></path><path d="M205.49,447.48c4.34-.82,9.64-.17,13,2.91.13.12,0,.3-.18.26A60.89,60.89,0,0,0,205.51,448,.28.28,0,0,1,205.49,447.48Z" style="fill: rgb(38, 50, 56); transform-origin: 211.933px 448.906px;" id="els27mcdipyv" class="animable"></path><path d="M202.37,449.38c4.33-.83,9.64-.17,13,2.9.13.12-.05.3-.19.26a61.44,61.44,0,0,0-12.75-2.62A.27.27,0,0,1,202.37,449.38Z" style="fill: rgb(38, 50, 56); transform-origin: 208.772px 450.798px;" id="elbv3ef32yxs6" class="animable"></path><path d="M199.24,451.27c4.34-.82,9.64-.17,13,2.91.13.12,0,.3-.18.26a60.89,60.89,0,0,0-12.76-2.62A.28.28,0,0,1,199.24,451.27Z" style="fill: rgb(38, 50, 56); transform-origin: 205.663px 452.696px;" id="elbbcszv5a7xc" class="animable"></path><path d="M202.54,441.75c3.07,2.38,7.07,3.34,10.65,4.66a.55.55,0,0,0,.68-.55.11.11,0,0,0,.1-.15,23.23,23.23,0,0,0-6.7-9.92c-1.82-1.51-5-2.56-6.69-.21S200.75,440.37,202.54,441.75Zm-1.11-3.48c-.78-4.76,4.33-2.27,5.63-1.1a24.45,24.45,0,0,1,2.3,2.47,68.31,68.31,0,0,1,4,5.7c-1.72-.75-3.49-1.35-5.23-2C206.08,442.48,201.86,440.89,201.43,438.27Z" style="fill: rgb(38, 50, 56); transform-origin: 206.947px 440.313px;" id="elbirhc6li3v" class="animable"></path><path d="M228.43,439.06c-1.06-2.7-4.4-2.48-6.53-1.47a23.19,23.19,0,0,0-9,7.93.11.11,0,0,0,.06.17c-.07.33.13.74.52.7,3.8-.38,7.91-.31,11.48-1.85C227.07,443.65,229.43,441.61,228.43,439.06Zm-9.28,5.58c-1.86.23-3.72.37-5.58.67a67.69,67.69,0,0,1,5.34-4.51,25.08,25.08,0,0,1,2.85-1.83c1.54-.81,7.12-1.93,5.18,2.48C225.87,443.88,221.38,444.36,219.15,444.64Z" style="fill: rgb(38, 50, 56); transform-origin: 220.773px 441.643px;" id="elkl75cttabg" class="animable"></path><path d="M266.93,218.13s-6.11,54.52-10.3,89.91c-.76,6.39-1.45,12.16-2,16.86-.79,6.36-1.38,10.79-1.65,12.23-.24,1.23-.16,6.13-.11,13,0,3.87,0,8.37,0,13.2-.22,18.65-.17,43.37-.12,58.87H210c-.27-24.38-.43-73.07,2.12-98.82C215.65,287.63,227,218.13,227,218.13Z" style="fill: rgb(69, 90, 100); transform-origin: 238.393px 320.165px;" id="elt6yhdvtk6e" class="animable"></path><path d="M252.83,350.15c-.05-6.89-.13-11.79.11-13,1.6-8.43,14-119,14-119H232.8Z" style="fill: rgb(38, 50, 56); transform-origin: 249.87px 284.15px;" id="el0nxoggadlq" class="animable"></path><path d="M400.49,336.78s-1.43.58-4,1.56c-2.24.87-5.36,2-9.15,3.41l-1.48.52-.27.1-.93.33c-26,9.22-77.12,25.14-100.5,17.06S227.65,217.69,227,218.13c0,0,56.67,0,56.67,0s10.54,27.19,1.55,44.3c-.83,1.58,20.13,57.4,32.81,55.87,9.9-1.2,37.51-11.56,54.93-16.92l2.84-.87,3.17-1,.05,0,5.4-1.66,3.64-1.12Z" style="fill: rgb(255, 196, 192); transform-origin: 313.745px 290.053px;" id="elsjgu2vs971s" class="animable"></path><path d="M443.88,354.66c.05-2.41-19.4-64.81-21.65-66.72-.84-.73-10.1,1.58-21.19,4.68-2.4.66-4.91,1.26-7.38,2.1-3.1,1.06-32.74,10.72-32.74,10.72l12.19,41.18,23.46-8,9.62-3.27,7.26-2.46s18.14,20.55,20.82,22.38S443.83,357.06,443.88,354.66Z" style="fill: rgb(255, 196, 192); transform-origin: 402.4px 322.183px;" id="elody7sw4w2c" class="animable"></path><path d="M443.88,354.66c.05-2.41-19.4-64.81-21.65-66.72-.84-.73-10.1,1.58-21.19,4.68-2.4.66-4.91,1.26-7.38,2.1-3.1,1.06-6.27,1.95-9.24,3,3.7,12.19,8.95,29.94,12.15,40.86l9.62-3.27,7.26-2.46s18.14,20.55,20.82,22.38S443.83,357.06,443.88,354.66Z" style="fill: rgb(255, 255, 255); transform-origin: 414.15px 322.171px;" id="ellv0oeld1a9" class="animable"></path><path d="M444,354.82c.05-2.42-19.51-65.17-21.77-67.09-1-.89-14.56,2.72-28.73,6.82l12.6,40.85,7.3-2.48s18.24,20.68,20.94,22.52S444,357.24,444,354.82Z" style="fill: rgb(255, 199, 39); transform-origin: 418.75px 322.165px;" id="eleulobfpgx3k" class="animable"></path><path d="M441.24,354.71c-3.54-10.44-16.82-52.88-19.52-63.46,0-.09,0-.11.07,0,3.73,10.27,16.66,52.81,19.62,63.42C441.47,354.88,441.31,354.93,441.24,354.71Z" style="fill: rgb(38, 50, 56); transform-origin: 431.572px 323.014px;" id="elr9m43cy6aqt" class="animable"></path><path d="M411.56,335.13c-2.06-3.89-3-9.16-1-13.24.07-.16.3-.05.3.1a60,60,0,0,0,1.26,13A.28.28,0,0,1,411.56,335.13Z" style="fill: rgb(38, 50, 56); transform-origin: 410.791px 328.58px;" id="elnih2q6unaa" class="animable"></path><path d="M414.29,337.56c-2.06-3.9-3-9.16-1-13.24.08-.16.3-.05.3.1a60.79,60.79,0,0,0,1.26,13A.28.28,0,0,1,414.29,337.56Z" style="fill: rgb(38, 50, 56); transform-origin: 413.521px 331.01px;" id="elcb5ieoshwj" class="animable"></path><path d="M417,340c-2.06-3.9-3-9.16-1-13.24.08-.16.3-.05.3.1a61.44,61.44,0,0,0,1.26,13A.28.28,0,0,1,417,340Z" style="fill: rgb(38, 50, 56); transform-origin: 416.231px 333.45px;" id="elwofbu1ehy7" class="animable"></path><path d="M419.75,342.41c-2.06-3.9-3-9.16-1-13.24.08-.16.3-.05.3.1a61.31,61.31,0,0,0,1.26,13A.28.28,0,0,1,419.75,342.41Z" style="fill: rgb(38, 50, 56); transform-origin: 418.981px 335.86px;" id="elcfbrng9gt68" class="animable"></path><path d="M410.87,330.18a.64.64,0,0,0-.59-.15.12.12,0,0,0-.18,0l-.31.23-.06,0-.12.09q-.23.17-.45.36a23.26,23.26,0,0,0-3.42,3.45c-.47.58-.92,1.19-1.33,1.81a20.26,20.26,0,0,0-1.81,3.35c-.91,2.18-1,5.52,1.77,6.45s4.52-1.57,5.32-3.69a25.32,25.32,0,0,0,1.2-8.28,0,0,0,0,0,0,0s0,0,0,0c0-1.08.05-2.15.11-3.2A.39.39,0,0,0,410.87,330.18Zm-1.22,4c0,.68-.09,1.35-.14,2-.17,2.23-.44,6.74-2.82,7.92-4.32,2.15-3.45-3.47-2.71-5.05a25.08,25.08,0,0,1,1.68-2.94c.17-.27.35-.53.53-.79l0,0c1.09-1.55,2.31-3,3.5-4.46l.17-.22,0,0s0,.07,0,.1a1.36,1.36,0,0,0,0,.2c-.11,1.09-.18,2.17-.24,3.25Z" style="fill: rgb(38, 50, 56); transform-origin: 406.523px 337.98px;" id="elovftw1whgbh" class="animable"></path><path d="M410.89,330.22s0,0,0,0c-.48-1.16-.94-2.37-1.42-3.57a23.68,23.68,0,0,0-3.71-6.81c-1.22-1.44-3.25-2.82-5.12-2.26a3.15,3.15,0,0,0-1.13.59c-2.27,1.8-1.08,4.93.52,6.67a20.77,20.77,0,0,0,3.85,3.24,23.29,23.29,0,0,0,5.3,2.66c.19.07.37.13.56.18l.17.05.07,0,.26.08a.12.12,0,0,0,.16-.11A.54.54,0,0,0,410.89,330.22Zm-1.28.12a64.69,64.69,0,0,1-5.66-3.63l-.66-.51a22,22,0,0,1-1.92-1.68c-1.11-1.11-3.44-5.3-.35-5.68a4.76,4.76,0,0,1,1.19,0c2.63.3,4.42,4.45,5.34,6.49.74,1.64,1.39,3.3,2.18,4.91a2.4,2.4,0,0,0,.11.23Z" style="fill: rgb(38, 50, 56); transform-origin: 404.586px 324.255px;" id="elb9z8kp68mxj" class="animable"></path><path d="M387.34,341.75l-1.48.52-.27.1-.93.33c-26,9.22-77.12,25.14-100.5,17.06S227.65,217.69,227,218.13c0,0,56.67,0,56.67,0s10.54,27.19,1.55,44.3c-.83,1.58,20.13,57.4,32.81,55.87,9.9-1.2,37.51-11.56,54.93-16.92l2.84-.87Z" style="fill: rgb(69, 90, 100); transform-origin: 307.17px 290.053px;" id="eli81z1sqy38o" class="animable"></path><path d="M225.9,166.15a.57.57,0,0,0,.51.55l2.21-.16c1.3-5.77,2.88-10.44,2.53-8.66a30.78,30.78,0,0,0-.35,8.5l4.36-.39c.52-9.92,1.83-17.4,2-15.17.55,9,1.39,11.82,2.35,14.8,10.53-1,24.32-2.36,34.27-3.61.49-5.52.79-11.45,1-11.07,1.73,2.84,2.63,7.17,3.08,10.54,3.16-.42,5.68-.82,7.21-1.15,0,0,.19-4.6.11-6.09a32.88,32.88,0,0,0-2.49-11.12,56.6,56.6,0,0,0-5.87-9.81l-.06-.07s0,0,0,0a32.31,32.31,0,0,1-3.5-6.6l0,0a34,34,0,0,1-1.47-5.25c-1.27-6.54-5.44-11.77-11.45-12.7-12.28-9.51-22.67-3.32-24.94,5.61-.22.87-.41,1.86-.58,2.94v0c-.65,4-1,9.08-1.5,13a0,0,0,0,1,0,0s0,0,0,0h0a38.56,38.56,0,0,1-.76,4.61C230.57,142.19,224.73,147,225.9,166.15Z" style="fill: rgb(38, 50, 56); transform-origin: 255.473px 135.309px;" id="elwdux0gcjaic" class="animable"></path><path d="M263,110.07a12.29,12.29,0,0,1,8,9.11,34.36,34.36,0,0,0,2.53,8,29.12,29.12,0,0,0,5.26,6.61c3.12,3.19,5.43,6.48,6.43,11.15s1.49,10.45.53,15.15c0,0,0,0,0,0a41.53,41.53,0,0,0-1.41-15.68c-1.47-5.11-4.64-8-7.95-11.6a22.42,22.42,0,0,1-5.46-10.1c-.58-2.34-.85-4.83-2-7-1.39-2.53-3.73-3.93-6-5.15C262.51,110.43,262.72,110,263,110.07Z" style="fill: rgb(38, 50, 56); transform-origin: 274.48px 135.076px;" id="elg4dg5y97s9c" class="animable"></path><path d="M227,143.2c2.22-4.12,4.62-7.71,5.62-12.58.92-4.44,1.18-9,2.12-13.46,0-.07.12-.06.1,0-1.32,7.82-.82,15.47-4.57,22.42-2,3.78-4.11,7.3-5.22,11.65a39.72,39.72,0,0,0-.88,13.94c0,.17-.18.18-.22,0A32.54,32.54,0,0,1,227,143.2Z" style="fill: rgb(38, 50, 56); transform-origin: 229.039px 141.206px;" id="el4cw91oxnudv" class="animable"></path><path d="M244.27,164.08c-8.85,8.59-41.59,24.56-53.27,20.46-7.62-2.67-29.47-24-33.77-30.32-5-7.38,10.65-21.68,15.06-18.83,5.51,3.57,22.59,22.2,27.78,25.16,3,1.71,23.92-5.14,44.06-9.32C251.94,149.6,249.56,159,244.27,164.08Z" style="fill: rgb(255, 196, 192); transform-origin: 202.702px 160.11px;" id="el7pkvf0g8lnm" class="animable"></path><path d="M172.58,143.09s-13.16-9.29-14-9.52-1.17.9-1.49,1.77a8.55,8.55,0,0,0-.06,1.68c0,2.65,0,7.33-3.35,6.76-4.34-.75-4.2-11.27-3.92-12.91a5.15,5.15,0,0,1,1.09-1.91c1.67-2.07,5-4.66,8.15-4.17,4.36.67,8.4,3.33,12.07,5.39Z" style="fill: rgb(255, 196, 192); transform-origin: 161.111px 134.279px;" id="elpnjgae9ykp8" class="animable"></path><path d="M172.58,143.09s-13.16-9.29-14-9.52-1.17.9-1.49,1.77a8.55,8.55,0,0,0-.06,1.68c-2.21-2.86-4.64-6-6.18-8.06,1.67-2.07,5-4.66,8.15-4.17,4.36.67,8.4,3.33,12.07,5.39Z" style="fill: rgb(38, 50, 56); transform-origin: 161.715px 133.91px;" id="el0ta83xziuyc" class="animable"></path><path d="M166.38,164.46c-.55-.77-6.24-6.58-10.53-11,.6-4.69.7-14.18.73-16.69.52-2.79,0-9-.24-9-.52,0-2.36,0-4.6-.22-3-.27-6.58-.85-8.76-2.11a3.21,3.21,0,0,1-1.92-2.72c0-2,4.52-2.21,9.84-2.86,7.24-.89,16.19-1.59,19.07,1.08,4.25,4,6.14,12.49,7,15s6.14,9.26,6.14,9.26C179.2,158.77,167.11,165.48,166.38,164.46Z" style="fill: rgb(255, 196, 192); transform-origin: 162.085px 141.811px;" id="ell6hrscvpq9" class="animable"></path><path d="M129.14,119.8s9.54,3.26,19.56,6.2,30.24,13.62,30.35,14.48-22.26-5.73-31.73-9.79-18.79-8.77-18.79-8.77Z" style="fill: rgb(69, 90, 100); transform-origin: 153.79px 130.178px;" id="elx0xyt2hp4al" class="animable"></path><polygon points="128.97 119.62 135.64 121.57 134.24 125.06 128.1 122.02 128.97 119.62" style="fill: rgb(235, 235, 235); transform-origin: 131.87px 122.34px;" id="elxngkjgv08pm" class="animable"></polygon><path d="M129,119.62a5.48,5.48,0,0,0-4.52-2.16,5.27,5.27,0,0,1-4-1.43s1.89,6.4,7.6,6Z" style="fill: rgb(69, 90, 100); transform-origin: 124.74px 119.039px;" id="elyhc12xhywd" class="animable"></path><path d="M120.3,115.84c.4,0,1.5,1.33,3,1.46s.88,4.33-.52,2.94C121.18,118.67,119.58,115.8,120.3,115.84Z" style="fill: rgb(255, 199, 39); transform-origin: 122.145px 118.181px;" id="elfor0sy6v6bg" class="animable"></path><path d="M155.85,153.51c-1.47-1.49-2.79-2.79-3.71-3.66a14.89,14.89,0,0,1-5-9.83c-.46-3.35-7.84-10.37-2.29-10.89s9.93,9.69,11.22,8.94c.24-.14.42-.6.54-1.25C156.55,139.33,156.45,148.82,155.85,153.51Z" style="fill: rgb(255, 196, 192); transform-origin: 149.701px 141.31px;" id="elpjv30zcvhih" class="animable"></path><path d="M156.77,135c0-.13-.09-.11-.11,0,0,.46-.31,2.53-.78,2.53-.84,0-3.75-4.14-5.28-5.66-.09-.08-.21,0-.12.1.43.38,1.72,2.19,2.05,2.62.63.84,2.37,3.52,3.42,3.52C156.65,138.17,156.82,135.53,156.77,135Z" style="fill: rgb(38, 50, 56); transform-origin: 153.613px 134.974px;" id="elahmvwwe58a9" class="animable"></path><path d="M214.38,156.64l4.43,13.85c1.64,5.22,3.16,10,3.26,10.55a161,161,0,0,0,22.73-15.18c9.62-7.81,8.61-14.36,3-15.37a9.9,9.9,0,0,0-2.58-.08C237.58,151.12,214.38,156.64,214.38,156.64Z" style="fill: rgb(255, 199, 39); transform-origin: 233.208px 165.7px;" id="el5t5naqburmv" class="animable"></path><path d="M230.27,158.15h-.78A1.45,1.45,0,0,1,228,156.7a1,1,0,0,0-1-.95h-.82v-.5h.82a1.45,1.45,0,0,1,1.46,1.45.94.94,0,0,0,1,1h.78Zm-8.55,8.74a1,1,0,0,1,1.35,0,1.48,1.48,0,0,0,2.05,0l.58-.59-.35-.35-.59.58a1,1,0,0,1-1.34,0,1.46,1.46,0,0,0-2,0l-.56.56.36.35Z" style="fill: rgb(255, 255, 255); transform-origin: 225.565px 161.345px;" id="eln7dmngvpi3" class="animable"></path><path d="M218.81,170.49c1.64,5.22,3.16,10,3.26,10.55a161,161,0,0,0,22.73-15.18c9.62-7.81,8.61-14.36,3-15.37Z" style="fill: rgb(38, 50, 56); transform-origin: 235.423px 165.765px;" id="el0tf947l9yb" class="animable"></path><path d="M300.55,298.23H212l.51-3.18,11.09-69.38.15-.91,5.21-32.62s-4.58-6.93-3.19-13.19c.7-3.17,8-15.83,11.88-21a39.2,39.2,0,0,1,4.11-4.86c4.26-4,10-4.51,14.09-3.91h0a12,12,0,0,1,2.12.53c5.88,2,13.11,8.9,17,19.32,1.35,3.62,2.69,7.84,4,12.51h0c.06.23.12.46.19.69,3.87,13.89,7.57,31.57,10.76,48.92,1.81,9.81,3.46,19.52,4.89,28.37l.18,1.17C298.42,282.13,300.55,298.23,300.55,298.23Z" style="fill: rgb(255, 199, 39); transform-origin: 256.275px 223.6px;" id="elc7xa1iuv20h" class="animable"></path><path d="M256.51,221.94h-.79a1.45,1.45,0,0,1-1.45-1.45,1,1,0,0,0-1-1h-.83V219h.83a1.46,1.46,0,0,1,1.45,1.46,1,1,0,0,0,.95.95h.79Zm12.42,43.95h-.78a1,1,0,0,1-.95-.95,1.45,1.45,0,0,0-1.45-1.45h-.83v.5h.83a1,1,0,0,1,.95.95,1.45,1.45,0,0,0,1.45,1.45h.78Zm15.47-42h-.78a1,1,0,0,1-.95-1,1.46,1.46,0,0,0-1.46-1.45h-.83v.5h.83a1,1,0,0,1,1,.95,1.45,1.45,0,0,0,1.45,1.45h.78Zm-39.54-22.61h-.79a1,1,0,0,1-.95-.95,1.45,1.45,0,0,0-1.45-1.45h-.83v.5h.83a1,1,0,0,1,1,.95,1.45,1.45,0,0,0,1.45,1.45h.79Zm-14.59-18.7h-.78a1,1,0,0,1-1-.95,1.45,1.45,0,0,0-1.46-1.45h-.82v.5h.82a1,1,0,0,1,1,1,1.45,1.45,0,0,0,1.45,1.45h.78Zm38.93,18.19h-.79a1,1,0,0,1-1-.95,1.45,1.45,0,0,0-1.45-1.45h-.83v.5H266a1,1,0,0,1,.95,1,1.45,1.45,0,0,0,1.45,1.45h.79Zm-14.4-25.44H254a1,1,0,0,1-.95-.95,1.45,1.45,0,0,0-1.45-1.45h-.83v.5h.83a1,1,0,0,1,.95,1,1.45,1.45,0,0,0,1.45,1.45h.79ZM238.88,240h-.78a1,1,0,0,1-.95-1,1.46,1.46,0,0,0-1.46-1.45h-.83v.5h.83a1,1,0,0,1,1,1,1.46,1.46,0,0,0,1.45,1.46h.78Zm20.2,41.68h-.79a1,1,0,0,1-1-1,1.45,1.45,0,0,0-1.45-1.45h-.83v.5h.83a1,1,0,0,1,.95.95,1.45,1.45,0,0,0,1.45,1.45h.79Zm26.23,14.19h-.79a1,1,0,0,1-.95-1,1.45,1.45,0,0,0-1.45-1.45h-.83v.5h.83a1,1,0,0,1,.95.95,1.46,1.46,0,0,0,1.45,1.46h.79ZM230.19,286h-.79a1,1,0,0,1-1-.95,1.45,1.45,0,0,0-1.45-1.45h-.83v.5H227a1,1,0,0,1,.95.95,1.45,1.45,0,0,0,1.45,1.45h.79Zm22.17-27.14h-.79a1,1,0,0,1-.95-.95,1.45,1.45,0,0,0-1.45-1.45h-.83v.5h.83a1,1,0,0,1,1,.95,1.45,1.45,0,0,0,1.45,1.45h.79Zm-24.18,4h-.79a1,1,0,0,1-.95-.95,1.46,1.46,0,0,0-1.45-1.46h-.83v.5H225a1,1,0,0,1,.95,1,1.45,1.45,0,0,0,1.45,1.45h.79Zm35.31-22.29h-.79a1,1,0,0,1-.95-.95,1.45,1.45,0,0,0-1.45-1.45h-.83v.5h.83a1,1,0,0,1,.95,1,1.45,1.45,0,0,0,1.45,1.45h.79Zm30.92,30h-.79a1,1,0,0,1-.95-1,1.46,1.46,0,0,0-1.45-1.45h-.83v.5h.83a1,1,0,0,1,.95.95,1.46,1.46,0,0,0,1.45,1.46h.79Zm-55.29-58.07a1,1,0,0,1,1.34,0,1.46,1.46,0,0,0,2,0l.59-.59-.35-.35-.59.59a1,1,0,0,1-1.35,0,1.48,1.48,0,0,0-2.05,0l-.55.55.35.35Zm-9-15a1,1,0,0,1,1.34,0,1.44,1.44,0,0,0,2.05,0l.59-.58-.35-.36-.59.59a1,1,0,0,1-1.34,0,1.49,1.49,0,0,0-2.06,0l-.55.56.35.35Zm45.31,41.16a1,1,0,0,1,1.34,0,1.48,1.48,0,0,0,2,0l.59-.59-.35-.35-.59.59a1,1,0,0,1-1.34,0,1.45,1.45,0,0,0-2.06,0l-.55.55.35.36Zm-22.67-48.67a1,1,0,0,1,1.34,0,1.48,1.48,0,0,0,2.05,0l.59-.59-.35-.35-.59.58a1,1,0,0,1-1.35,0,1.5,1.5,0,0,0-2.05,0l-.55.56.35.35Zm-5.22-31.27a1,1,0,0,1,1.35,0,1.46,1.46,0,0,0,2.05,0l.59-.59-.36-.35-.58.58a1,1,0,0,1-1.35,0,1.46,1.46,0,0,0-2,0l-.56.56.36.35Zm-10.21,17.05a1,1,0,0,1,1.34,0,1.44,1.44,0,0,0,2.05,0l.59-.58-.35-.36-.59.59a1,1,0,0,1-1.35,0,1.46,1.46,0,0,0-2,0l-.55.56.35.35Zm16.2,30.81a1,1,0,0,1,.95-.95,1.45,1.45,0,0,0,1.45-1.45v-.83h-.5v.83a1,1,0,0,1-.95,1,1.45,1.45,0,0,0-1.45,1.45v.79h.5ZM248.2,246a1,1,0,0,1,1-.95,1.45,1.45,0,0,0,1.45-1.45v-.83h-.5v.83a1,1,0,0,1-.95,1A1.45,1.45,0,0,0,247.7,246v.79h.5ZM276,275.42a1,1,0,0,1,1-.95,1.45,1.45,0,0,0,1.45-1.45v-.83h-.5V273a1,1,0,0,1-.95,1,1.46,1.46,0,0,0-1.46,1.45v.79h.5Zm19.23,19.16a1,1,0,0,1,.95-.95,1.45,1.45,0,0,0,1.45-1.45v-.83h-.5v.83a1,1,0,0,1-1,.95,1.45,1.45,0,0,0-1.45,1.45v.79h.5Zm-7-55.47a.94.94,0,0,1,.95-1,1.46,1.46,0,0,0,1.45-1.46v-.83h-.5v.83a1,1,0,0,1-.95,1,1.45,1.45,0,0,0-1.45,1.45v.78h.5Zm-61.82,8.33a1,1,0,0,1,1-.95,1.45,1.45,0,0,0,1.45-1.45v-.83h-.5V245a.94.94,0,0,1-.95,1,1.45,1.45,0,0,0-1.45,1.45v.79h.5Zm1.2-35.44a1,1,0,0,1,.95-.95A1.45,1.45,0,0,0,230,209.6v-.83h-.5v.83a1,1,0,0,1-1,1,1.45,1.45,0,0,0-1.45,1.45v.79h.5Zm12.93-23a1,1,0,0,1,.95-1,1.45,1.45,0,0,0,1.45-1.45v-.83h-.5v.83a1,1,0,0,1-.95.95,1.45,1.45,0,0,0-1.45,1.45v.79h.5Zm-4.89-23.17a1,1,0,0,1,1-.95,1.46,1.46,0,0,0,1.45-1.46v-.83h-.5v.83a1,1,0,0,1-.95,1,1.45,1.45,0,0,0-1.45,1.45v.78h.5Zm1.42,58.79a1,1,0,0,1,.95-1,1.45,1.45,0,0,0,1.45-1.45v-.83H239v.83a1,1,0,0,1-.95.95,1.45,1.45,0,0,0-1.45,1.45v.79h.5Zm31.17,4.79a1,1,0,0,1,.95-1,1.45,1.45,0,0,0,1.45-1.45v-.83h-.5V227a1,1,0,0,1-.95.95,1.45,1.45,0,0,0-1.45,1.45v.79h.5Zm-28.81,40a1,1,0,0,1,.95-.95,1.45,1.45,0,0,0,1.45-1.45v-.83h-.5V267a1,1,0,0,1-1,.95,1.45,1.45,0,0,0-1.45,1.45v.79h.5ZM217.36,280a1,1,0,0,1,.95-1,1.45,1.45,0,0,0,1.45-1.45v-.83h-.5v.83a1,1,0,0,1-.95.95,1.45,1.45,0,0,0-1.45,1.45v.79h.5Zm28.83,12a1,1,0,0,1,.95-.95,1.45,1.45,0,0,0,1.45-1.45v-.83h-.5v.83a1,1,0,0,1-1,.95,1.45,1.45,0,0,0-1.45,1.45v.79h.5Zm32.49-39.88a1,1,0,0,1,.95-1,1.45,1.45,0,0,0,1.45-1.46v-.83h-.5v.83a1,1,0,0,1-.95,1,1.45,1.45,0,0,0-1.45,1.45v.78h.5ZM265.42,213a1,1,0,0,1,1.35,0,1.44,1.44,0,0,0,2.05,0l.56-.56-.36-.35-.55.56a1,1,0,0,1-1.35,0,1.44,1.44,0,0,0-2.05,0l-.59.58.35.36Zm-17.78,17.88a1,1,0,0,1,1.35,0,1.48,1.48,0,0,0,2,0l.55-.56-.35-.35-.56.56a1,1,0,0,1-1.34,0,1.44,1.44,0,0,0-2.05,0l-.59.58.35.36Zm-12.32,24.26a1,1,0,0,1,1.35,0,1.44,1.44,0,0,0,2.05,0l.56-.56-.36-.35-.55.56a1,1,0,0,1-1.35,0,1.44,1.44,0,0,0-2.05,0l-.59.58.36.36Zm5.33,25.21a1,1,0,0,1,1.34,0,1.48,1.48,0,0,0,2,0l.56-.56-.35-.35-.56.55a.93.93,0,0,1-1.34,0,1.47,1.47,0,0,0-2.06,0l-.58.59.35.36ZM258,295.12a1,1,0,0,1,1.35,0,1.49,1.49,0,0,0,2.05,0l.56-.56-.36-.35-.55.55a1,1,0,0,1-1.35,0,1.46,1.46,0,0,0-2.05,0l-.59.59.36.35Zm6.52-42.46a1,1,0,0,1,1.35,0,1.49,1.49,0,0,0,2.05,0l.55-.56-.35-.35-.55.55a1,1,0,0,1-1.35,0,1.46,1.46,0,0,0-2.05,0l-.59.59.36.35Zm4.41,33.14a1,1,0,0,1,1.35,0,1.45,1.45,0,0,0,2.05,0l.56-.56-.36-.35-.55.56a1,1,0,0,1-1.35,0,1.48,1.48,0,0,0-2,0L268,286l.36.36Zm18.51-2.07a1,1,0,0,1,1.34,0,1.48,1.48,0,0,0,2.05,0l.56-.56-.35-.35-.56.56a1,1,0,0,1-1.34,0,1.45,1.45,0,0,0-2.06,0l-.58.58.35.36Zm1.48-31.07a.94.94,0,0,1,1.35,0,1.46,1.46,0,0,0,2,0l.55-.56-.35-.35-.55.55a1,1,0,0,1-1.35,0,1.48,1.48,0,0,0-2.05,0l-.59.59.35.35Zm-8,10a1,1,0,0,1,1.34,0,1.46,1.46,0,0,0,2,0l.56-.56-.35-.35-.56.55a1,1,0,0,1-1.34,0,1.47,1.47,0,0,0-2.06,0l-.58.59.35.35Zm-27.6,7.62a1,1,0,0,1,1.35,0,1.46,1.46,0,0,0,2.05,0l.56-.56-.36-.35-.55.55a1,1,0,0,1-1.35,0,1.5,1.5,0,0,0-2.05,0l-.59.59.36.35Zm-25.39,3.47a1,1,0,0,1,1.34,0,1.48,1.48,0,0,0,2,0l.56-.56-.35-.35-.56.56a1,1,0,0,1-1.34,0,1.49,1.49,0,0,0-2.06,0L227,274l.35.36Zm4.32,22.71a1,1,0,0,1,1.34,0,1.46,1.46,0,0,0,2.05,0l.56-.56-.36-.35-.55.55a.94.94,0,0,1-1.35,0,1.46,1.46,0,0,0-2,0l-.59.59.36.35Zm-16-3a1,1,0,0,1,1.34,0,1.46,1.46,0,0,0,2,0l.56-.56-.35-.35-.56.56a1,1,0,0,1-1.35,0,1.44,1.44,0,0,0-2.05,0l-.58.58.35.36Zm9.66-62.06a1,1,0,0,1,1.34,0,1.48,1.48,0,0,0,2,0l.56-.56-.35-.35-.56.56a1,1,0,0,1-1.35,0,1.44,1.44,0,0,0-2.05,0l-.58.58.35.36Z" style="fill: rgb(255, 255, 255); transform-origin: 256.445px 227.41px;" id="elwlxfi7un90d" class="animable"></path><path d="M300.55,298.23H285.94L258,149.75c5.88,2,13.11,8.9,17,19.32,1.35,3.62,2.69,7.84,4,12.51h0c.06.23.12.46.19.69,3.87,13.89,7.57,31.57,10.76,48.92,1.81,9.81,3.46,19.52,4.89,28.37l.18,1.17C298.42,282.13,300.55,298.23,300.55,298.23Z" style="fill: rgb(38, 50, 56); transform-origin: 279.275px 223.99px;" id="elaet5gs7x144" class="animable"></path><path d="M308.5,268.53c1.81,4.08.82,10.94,4.12,10.55,2.93-.35,3.16-5.17,3.16-5.17s1.5,5.52,4.55,4.24,2.22-6.61,2.22-6.61,1.05,4.65,4,3.15,3.08-6.15,3.08-6.15,1.21,1.12,2.82-.87c2.31-2.85.55-10.57-1.33-14.39S319.55,236.88,318,235l-24.6,11.83s.21,8.33.83,12.54,6.51,17.51,9.91,16.27-.92-10.56-1.48-13.08-.07-3.07,1.06-2.13C304.49,261,307.7,266.72,308.5,268.53Z" style="fill: rgb(255, 196, 192); transform-origin: 313.475px 257.048px;" id="el06esb04if0u7" class="animable"></path><path d="M315.68,273.68c-.17-6.75-1.4-9.67-5.08-15.2-.07-.11.07-.24.16-.13,4.09,5.08,6.17,8.53,5.24,15.34C316,274,315.68,274,315.68,273.68Z" style="fill: rgb(38, 50, 56); transform-origin: 313.4px 266.115px;" id="elcm3tztqqi9j" class="animable"></path><path d="M322.49,271.82c-.78-7-2.09-10.17-5.52-16.24-.05-.09.09-.18.15-.1,3.86,5.68,5.86,9.16,5.72,16.25C322.83,272.05,322.53,272.14,322.49,271.82Z" style="fill: rgb(38, 50, 56); transform-origin: 319.903px 263.734px;" id="elma3g01gt0p" class="animable"></path><path d="M329.56,268.47c-1.24-6.71-2.53-10.26-6.61-15.73a.13.13,0,0,1,.19-.17c4.7,5.18,6.35,9.6,6.62,15.84C329.78,268.84,329.64,268.89,329.56,268.47Z" style="fill: rgb(38, 50, 56); transform-origin: 326.347px 260.652px;" id="elaq9vxr6lofi" class="animable"></path><path d="M267,156.7c19,19.73,48.28,72.22,51.71,79.39,2.33,4.87-23.11,17.74-24.2,14.2-1.39-4.54-23.09-55.91-29-77C262.24,161.62,263.08,152.62,267,156.7Z" style="fill: rgb(255, 196, 192); transform-origin: 291.175px 203.3px;" id="eljdzdqe33kx" class="animable"></path><path d="M258.38,159.11c1.27,7.2,9.84,31.21,9.84,31.21L284,186.53l.28-.06,10.05-2.4s-19.27-22.49-28.3-29.42S257,151,258.38,159.11Z" style="fill: rgb(255, 199, 39); transform-origin: 276.022px 170.599px;" id="eld6z7lvupg59" class="animable"></path><path d="M283.9,183h-.79a1.45,1.45,0,0,1-1.45-1.45,1,1,0,0,0-1-1h-.83v-.5h.83a1.45,1.45,0,0,1,1.45,1.45,1,1,0,0,0,.95.95h.79Zm-13.25-12.7a1,1,0,0,1,1.35,0,1.48,1.48,0,0,0,2.05,0l.59-.59-.36-.35-.58.59a1,1,0,0,1-1.35,0,1.44,1.44,0,0,0-2.05,0l-.56.55.36.36Zm-4.41,11.27a1,1,0,0,1,.95-.95,1.45,1.45,0,0,0,1.45-1.45v-.83h-.5v.83a1,1,0,0,1-.95,1,1.45,1.45,0,0,0-1.45,1.45v.79h.5Zm-5.72-17.82a.94.94,0,0,1,1-.95,1.45,1.45,0,0,0,1.45-1.45v-.83h-.5v.83a1,1,0,0,1-.95,1,1.45,1.45,0,0,0-1.45,1.45v.78h.5Z" style="fill: rgb(255, 255, 255); transform-origin: 271.985px 171.76px;" id="el78opmt58d3a" class="animable"></path><path d="M266.91,155.35c.2-.46-12.55,11-23.06,9-5.25-1-6.24-12.71-5.62-12.83C247.07,149.73,255.46,144.91,266.91,155.35Z" style="fill: rgb(255, 196, 192); transform-origin: 252.489px 156.713px;" id="elwyogb180hzf" class="animable"></path><path d="M256.9,151.14c-.39,1-6.3,7-11,6.12-1.53-.3-.28-8.73-.28-8.73l-.05-.65-.7-9,11.2-5.11,1.6-.66s0,2.48,0,5.56v.44c0,.18,0,.34,0,.51,0,.46,0,.93,0,1.4s0,.7,0,1.08l0,1.11A57.44,57.44,0,0,1,256.9,151.14Z" style="fill: rgb(255, 196, 192); transform-origin: 251.27px 145.229px;" id="elo52p1h6g0m" class="animable"></path><path d="M257.7,138.67a18.11,18.11,0,0,1-12.14,9.21l-.7-9,11.2-5.11,1.6-.66S257.69,135.59,257.7,138.67Z" style="fill: rgb(38, 50, 56); transform-origin: 251.28px 140.495px;" id="eleptbvlcbkn" class="animable"></path><path d="M235,123.22c-3.67,15.43,5.15,19.37,8.48,20.15,3,.72,13.4,2.77,18.64-12.19s-.76-21.55-7.59-23.55S238.65,107.79,235,123.22Z" style="fill: rgb(255, 196, 192); transform-origin: 249.117px 125.444px;" id="el7z7503bycl" class="animable"></path><path d="M238.38,121.55a10,10,0,0,0,1.1,0,1.75,1.75,0,0,0,1.1-.26.57.57,0,0,0,.12-.68,1.39,1.39,0,0,0-1.31-.55,2.08,2.08,0,0,0-1.39.51A.6.6,0,0,0,238.38,121.55Z" style="fill: rgb(38, 50, 56); transform-origin: 239.312px 120.806px;" id="eltp8e13vu2ds" class="animable"></path><path d="M249.16,123.67a9,9,0,0,1-1-.4,1.82,1.82,0,0,1-1-.6.56.56,0,0,1,.12-.68,1.39,1.39,0,0,1,1.41-.1,2,2,0,0,1,1.15.93A.6.6,0,0,1,249.16,123.67Z" style="fill: rgb(38, 50, 56); transform-origin: 248.498px 122.716px;" id="elvq8zv7pq97i" class="animable"></path><path d="M246.42,127.27s.07.07.06.11c-.23,1.06-.32,2.3.57,2.84,0,0,0,.07,0,.05C245.89,129.89,246,128.23,246.42,127.27Z" style="fill: rgb(38, 50, 56); transform-origin: 246.588px 128.772px;" id="el63kw6qely3s" class="animable"></path><path d="M247.58,126.34c1.73.2,1.21,3.64-.39,3.47S246.13,126.18,247.58,126.34Z" style="fill: rgb(38, 50, 56); transform-origin: 247.436px 128.075px;" id="el22h9mekwh8s" class="animable"></path><path d="M248.23,126.63c.27.24.51.63.87.72s.79-.21,1.11-.52c0,0,.06,0,0,0-.08.66-.44,1.3-1.16,1.29s-1-.66-1.1-1.35C248,126.7,248.12,126.53,248.23,126.63Z" style="fill: rgb(38, 50, 56); transform-origin: 249.093px 127.36px;" id="el7dc5ny9o1x9" class="animable"></path><path d="M239.8,125.79s-.09,0-.09.08c-.12,1.08-.44,2.29-1.45,2.5,0,0,0,.06,0,.06C239.46,128.44,239.86,126.82,239.8,125.79Z" style="fill: rgb(38, 50, 56); transform-origin: 239.033px 127.11px;" id="eljm6te8yad2" class="animable"></path><path d="M239,124.54c-1.71-.38-2.33,3-.75,3.4S240.43,124.85,239,124.54Z" style="fill: rgb(38, 50, 56); transform-origin: 238.574px 126.241px;" id="elpx2zx4bi2sb" class="animable"></path><path d="M238.25,124.63c-.3.14-.63.42-1,.38s-.59-.46-.77-.86c0,0-.05,0-.06,0-.13.66,0,1.38.57,1.62s1.08-.27,1.35-.89C238.43,124.78,238.37,124.58,238.25,124.63Z" style="fill: rgb(38, 50, 56); transform-origin: 237.379px 124.99px;" id="elfbfnq0ys5tu" class="animable"></path><path d="M244.67,135.39c-.28.22-.57.54-1,.53a2.87,2.87,0,0,1-1.12-.38,0,0,0,0,0-.05.05,1.43,1.43,0,0,0,1.3.72,1.16,1.16,0,0,0,.94-.86A.06.06,0,0,0,244.67,135.39Z" style="fill: rgb(38, 50, 56); transform-origin: 243.62px 135.85px;" id="elx7k88bd8gw" class="animable"></path><path d="M240.84,130.82s-.48,1.55-.6,2.3c0,.07.16.14.42.19h0a3.6,3.6,0,0,0,3.68-.78c.06-.06,0-.15-.1-.12a5.42,5.42,0,0,1-3.41.41c0-.22.91-2.64.79-2.67a6.87,6.87,0,0,0-1.77.11c.9-3.27,2.32-6.37,3.16-9.64a.1.1,0,0,0-.19-.08A55.08,55.08,0,0,0,239,130.79C238.88,131.21,240.52,130.9,240.84,130.82Z" style="fill: rgb(38, 50, 56); transform-origin: 241.679px 126.997px;" id="elpjb6mgwxpii" class="animable"></path><path d="M240.81,132.75a4.49,4.49,0,0,0,1.33,1.8,2.07,2.07,0,0,0,1.15.4c.9,0,1.14-.75,1.17-1.46a4.72,4.72,0,0,0-.09-1.12A5.72,5.72,0,0,1,240.81,132.75Z" style="fill: rgb(38, 50, 56); transform-origin: 242.637px 133.66px;" id="elvo412tbfaq" class="animable"></path><path d="M242.14,134.55a2.07,2.07,0,0,0,1.15.4c.9,0,1.14-.75,1.17-1.46A2.06,2.06,0,0,0,242.14,134.55Z" style="fill: rgb(255, 155, 188); transform-origin: 243.3px 134.191px;" id="el47e9r9ylss6" class="animable"></path><path d="M262,131.23c-1.77-.4-5.62-6.09-4.34-14.76,0,0-.61,7.86-.22,9.1s-2.15-3.21-1.21-10.21a28.59,28.59,0,0,1-7.77,2.53c-3.44.38-5.45,0-5.65-.26s4.9-1,6.46-2.3c0,0-9.43,2.63-13.52,2.27-.47,0,.56-9.74,7.47-12.79s16.08,3,18.31,6c0,0,3.05,1,5.69,6.14S263.88,131.67,262,131.23Z" style="fill: rgb(38, 50, 56); transform-origin: 251.767px 117.609px;" id="elh4sevrgsxg" class="animable"></path><path d="M259.37,131.78s4.15-4.39,6.19-2.84-1.58,8.26-4.34,8.85a2.68,2.68,0,0,1-3.34-1.95Z" style="fill: rgb(255, 196, 192); transform-origin: 262.019px 133.251px;" id="el74vijsg46i4" class="animable"></path><path d="M264.47,130.84s0,.06,0,.07c-1.94.47-3.16,2-4.09,3.68a1.48,1.48,0,0,1,2.25-.08.06.06,0,0,1-.06.1,1.62,1.62,0,0,0-1.88.3,7.6,7.6,0,0,0-1.08,1.32c-.11.15-.39,0-.3-.16l0,0C259.64,133.7,261.93,130.7,264.47,130.84Z" style="fill: rgb(38, 50, 56); transform-origin: 261.881px 133.564px;" id="el04gbyvxi15s8" class="animable"></path></g><g id="freepik--Painting--inject-185" class="animable" style="transform-origin: 232.239px 259.95px;"><g id="eliaakl18rc78"><path d="M124.09,119.05c-5.33,13-20,65.44-10.41,100.91,8.4,30.93,27.91,47.11,36.76,52.35,13,7.7,26.87,12.59,26.31,15.52s-14.22-3.41-14.84-2.28,29.71,30.32,83.64,36.28c83.35,9.21,132.3-20.76,139.5-22.05s-27.19,40.26-52.44,50c-5.81,2.23,15.34-3.49,29.7-12.09,5.39-3.23-9.46,40.31-59.07,51.08-9.54,2.07,11.07,1.95,18.42,1.08s-21.23,19.72-95.54,13.8C168.3,399,114.43,353.88,92.3,304.13c-2.49-5.6-7.62-1.94-9.26-5.9-3.5-8.45-1.88-24.79-3.59-28s-7.32,0-9-8.56-.78-34.24,13.07-75.42c1.64-4.88-.62-3.23-3.58,1.13s-6.46,8.24-9.76,8.08-1.55-12.27,12.41-34.56C106.52,122.6,128.93,107.3,124.09,119.05Z" style="fill: rgb(255, 199, 39); opacity: 0.5; transform-origin: 227.386px 259.95px;" class="animable"></path></g><g id="elmybq38tggjf"><path d="M181.1,292.94c.14-4.08,15.9-2.07,14.47,3.4S180.91,298.48,181.1,292.94Z" style="fill: rgb(255, 199, 39); opacity: 0.5; transform-origin: 188.38px 294.956px;" class="animable"></path></g><g id="el6pnefrqlr34"><path d="M328.23,388.49c1,3.82,14.74,1.16,13.65-4S327.07,383.89,328.23,388.49Z" style="fill: rgb(255, 199, 39); opacity: 0.5; transform-origin: 335.051px 386.251px;" class="animable"></path></g><g id="elhhgb2sdyq5w"><path d="M66.94,200.06c-2.63-.33-4.43,5.33-1.27,6.38S70.38,200.51,66.94,200.06Z" style="fill: rgb(255, 199, 39); opacity: 0.5; transform-origin: 66.4394px 203.297px;" class="animable"></path></g><g id="el7zq3asyl57s"><path d="M389.06,297.21c2,2.57,15.76-5.87,10.05-9.87C395.13,284.54,387.08,294.64,389.06,297.21Z" style="fill: rgb(255, 199, 39); opacity: 0.5; transform-origin: 394.62px 292.271px;" class="animable"></path></g><polygon points="268.84 372.98 263.38 373.99 262.16 379.75 260.94 373.99 255.47 372.98 260.91 371.65 262.16 366.21 263.4 371.65 268.84 372.98" style="fill: rgb(254, 254, 254); transform-origin: 262.155px 372.98px;" id="el2lhfyf2nj3r" class="animable"></polygon><polygon points="137.85 289.61 132.39 290.62 131.17 296.38 129.95 290.62 124.48 289.61 129.92 288.28 131.17 282.84 132.41 288.28 137.85 289.61" style="fill: rgb(254, 254, 254); transform-origin: 131.165px 289.61px;" id="el3kbs0q1aey4" class="animable"></polygon><polygon points="110.13 137.88 104.67 138.89 103.45 144.65 102.23 138.89 96.77 137.88 102.2 136.55 103.45 131.11 104.69 136.55 110.13 137.88" style="fill: rgb(254, 254, 254); transform-origin: 103.45px 137.88px;" id="elyw5vcxg7fma" class="animable"></polygon><polygon points="371.86 314.15 368.8 314.72 368.12 317.94 367.44 314.72 364.39 314.15 367.43 313.41 368.12 310.37 368.82 313.41 371.86 314.15" style="fill: rgb(254, 254, 254); transform-origin: 368.125px 314.155px;" id="eldljtw3qd286" class="animable"></polygon><polygon points="203.71 331.03 200.66 331.6 199.98 334.81 199.3 331.6 196.25 331.03 199.28 330.29 199.98 327.25 200.68 330.29 203.71 331.03" style="fill: rgb(254, 254, 254); transform-origin: 199.98px 331.03px;" id="el4ywh1wjyf6b" class="animable"></polygon><polygon points="333.58 369.99 330.53 370.56 329.85 373.78 329.16 370.56 326.11 369.99 329.15 369.25 329.85 366.21 330.54 369.25 333.58 369.99" style="fill: rgb(254, 254, 254); transform-origin: 329.845px 369.995px;" id="ellr489w8gwc" class="animable"></polygon><polygon points="235.7 393.27 232.65 393.83 231.96 397.05 231.28 393.83 228.23 393.27 231.27 392.52 231.96 389.48 232.66 392.52 235.7 393.27" style="fill: rgb(254, 254, 254); transform-origin: 231.965px 393.265px;" id="elw28p238ebz" class="animable"></polygon><polygon points="117.81 314.15 114.75 314.72 114.07 317.94 113.39 314.72 110.34 314.15 113.38 313.41 114.07 310.37 114.77 313.41 117.81 314.15" style="fill: rgb(254, 254, 254); transform-origin: 114.075px 314.155px;" id="elxe9coy7odti" class="animable"></polygon><polygon points="114.07 223.94 111.02 224.5 110.34 227.72 109.66 224.5 106.6 223.94 109.64 223.19 110.34 220.15 111.03 223.19 114.07 223.94" style="fill: rgb(254, 254, 254); transform-origin: 110.335px 223.935px;" id="elr916rkehc1t" class="animable"></polygon><path d="M278.56,338.89a.89.89,0,0,0,0,1.77A.89.89,0,0,0,278.56,338.89Z" style="fill: rgb(254, 254, 254); transform-origin: 278.56px 339.775px;" id="el8symiy3dq6r" class="animable"></path><path d="M91,172.28a.89.89,0,0,0,0,1.77A.89.89,0,0,0,91,172.28Z" style="fill: rgb(254, 254, 254); transform-origin: 91px 173.165px;" id="elbyappn80zyq" class="animable"></path><path d="M334.2,341.27a.89.89,0,0,0,0,1.77A.89.89,0,0,0,334.2,341.27Z" style="fill: rgb(254, 254, 254); transform-origin: 334.2px 342.155px;" id="ellqyyvnxtn7c" class="animable"></path><path d="M96.77,296.34a.89.89,0,0,0,0,1.77A.89.89,0,0,0,96.77,296.34Z" style="fill: rgb(254, 254, 254); transform-origin: 96.77px 297.225px;" id="elh13741us7z" class="animable"></path><path d="M75.58,242.17a.63.63,0,0,0,0,1.25A.63.63,0,0,0,75.58,242.17Z" style="fill: rgb(254, 254, 254); transform-origin: 75.58px 242.795px;" id="el7c3h07f0y0f" class="animable"></path><path d="M215.32,355a.63.63,0,0,0,0,1.25A.63.63,0,0,0,215.32,355Z" style="fill: rgb(254, 254, 254); transform-origin: 215.32px 355.625px;" id="el7v4wyq9z0r" class="animable"></path><path d="M153.57,352.75a.63.63,0,0,0,0,1.25A.63.63,0,0,0,153.57,352.75Z" style="fill: rgb(254, 254, 254); transform-origin: 153.57px 353.375px;" id="el2327j2an6wg" class="animable"></path><path d="M259.73,347.6a1.7,1.7,0,0,0,0,3.39A1.7,1.7,0,0,0,259.73,347.6Z" style="fill: rgb(254, 254, 254); transform-origin: 259.73px 349.295px;" id="el96295lrzpgb" class="animable"></path><path d="M161.59,347a1.7,1.7,0,0,0,0,3.39A1.7,1.7,0,0,0,161.59,347Z" style="fill: rgb(254, 254, 254); transform-origin: 161.59px 348.695px;" id="elo9awb4gstok" class="animable"></path></g><g id="freepik--musical-notes--inject-185" class="animable" style="transform-origin: 286.573px 135.442px;"><path d="M164.8,221.75a5.42,5.42,0,1,1-4.31-6.34A5.42,5.42,0,0,1,164.8,221.75Z" style="fill: rgb(69, 90, 100); transform-origin: 159.476px 220.734px;" id="elyddrc4m5i2" class="animable"></path><g id="elluwpedhja8"><rect x="163.25" y="194.3" width="4.14" height="27.24" style="fill: rgb(69, 90, 100); transform-origin: 165.32px 207.92px; transform: rotate(10.77deg);" class="animable"></rect></g><path d="M183.5,217.28a5.42,5.42,0,1,1-4.31-6.33A5.42,5.42,0,0,1,183.5,217.28Z" style="fill: rgb(69, 90, 100); transform-origin: 178.174px 216.274px;" id="elk8e7ho93ik" class="animable"></path><g id="elh0kwpn77db"><rect x="181.95" y="189.84" width="4.14" height="27.24" style="fill: rgb(69, 90, 100); transform-origin: 184.02px 203.46px; transform: rotate(10.77deg);" class="animable"></rect></g><polygon points="188.59 190.52 165.15 197.73 165.83 194.16 189.27 186.94 188.59 190.52" style="fill: rgb(69, 90, 100); transform-origin: 177.21px 192.335px;" id="el3gmgjw5e345" class="animable"></polygon><polygon points="187.31 197.26 163.87 204.47 164.55 200.9 187.99 193.68 187.31 197.26" style="fill: rgb(69, 90, 100); transform-origin: 175.93px 199.075px;" id="elq4jh6n6928h" class="animable"></polygon><path d="M398.38,78.36A5.42,5.42,0,1,1,394.07,72,5.41,5.41,0,0,1,398.38,78.36Z" style="fill: rgb(199, 199, 199); transform-origin: 393.061px 77.325px;" id="els9ld4kah4ia" class="animable"></path><g id="el0rrzhtgisp"><rect x="396.84" y="50.91" width="4.14" height="27.24" style="fill: rgb(199, 199, 199); transform-origin: 398.91px 64.53px; transform: rotate(10.77deg);" class="animable"></rect></g><g id="elydyceajrx7"><rect x="413.77" y="46.82" width="4.14" height="7.87" style="fill: rgb(199, 199, 199); transform-origin: 415.84px 50.755px; transform: rotate(10.77deg);" class="animable"></rect></g><polygon points="418.41 48.31 398.74 54.34 399.42 50.77 419.09 44.73 418.41 48.31" style="fill: rgb(199, 199, 199); transform-origin: 408.915px 49.535px;" id="elhrchgoxl5xa" class="animable"></polygon><polygon points="417.13 55.05 397.46 61.09 398.14 57.51 417.81 51.47 417.13 55.05" style="fill: rgb(199, 199, 199); transform-origin: 407.635px 56.28px;" id="elr6znodru9i" class="animable"></polygon></g><g id="freepik--light-bulb--inject-185" class="animable" style="transform-origin: 379.03px 234.624px;"><path d="M405.66,240.19c-7.83,17.29-20.42,16.91-23.88,21.08a87,87,0,0,0-5.33,8.42l-18.76-6a86.25,86.25,0,0,0,.53-9.95c-.39-5.4-10.89-12.39-7.24-31,2.38-12.24,17.2-28,37-21.7S410.8,228.83,405.66,240.19Z" style="fill: rgb(255, 199, 39); transform-origin: 379.04px 234.647px;" id="el3sofpt0ec7v" class="animable"></path><g id="elgq3h1bz6a8v"><rect x="348.12" y="250.14" width="31.87" height="1" style="fill: rgb(255, 255, 255); transform-origin: 364.055px 250.64px; transform: rotate(-82.82deg);" class="animable"></rect></g><g id="elwewz80hua5"><rect x="362.91" y="254.86" width="31.87" height="1" style="fill: rgb(255, 255, 255); transform-origin: 378.845px 255.36px; transform: rotate(-61.68deg);" class="animable"></rect></g><path d="M374,248.14A3,3,0,0,1,373,248c-1.47-.47-2.58-2.11-3.13-4.62,0-.11,0-.23-.07-.34a2.39,2.39,0,0,1-1.89.36c-2.81-.9-2.09-7.05-2.06-7.31l.5.06c0,.06-.71,6,1.71,6.77a2,2,0,0,0,1.65-.43c-.41-2.82-.06-6.22,1.24-7.41a1.53,1.53,0,0,1,1.55-.34c1.23.39,1.63,1.61,1.08,3.33a10.38,10.38,0,0,1-3.32,4.67c0,.18.06.35.1.53.3,1.35,1.05,3.7,2.79,4.25,1.17.38,2.63-.17,4.13-1.53.12-.11.25-.23.37-.36a8.13,8.13,0,0,1-.12-5.56c.67-2.09,1.86-3.13,3.13-2.73a1.42,1.42,0,0,1,.95,1.11c.37,1.71-1.19,5-3.37,7.29a2.92,2.92,0,0,0,1.64,1.38c1.72.55,4.55-3.07,5.5-4.51l.41.27c-.14.23-3.63,5.5-6.06,4.72a3.38,3.38,0,0,1-1.84-1.5l-.28.26A5.9,5.9,0,0,1,374,248.14Zm6.2-10.38c-1,0-1.74,1.27-2.12,2.46a8.11,8.11,0,0,0,0,5c2-2.16,3.44-5.2,3.11-6.71a.89.89,0,0,0-.62-.73A1.19,1.19,0,0,0,380.17,237.76Zm-8.13-2.6a1,1,0,0,0-.71.29c-1,.94-1.49,3.9-1.12,6.71a10,10,0,0,0,2.93-4.24c.27-.84.52-2.3-.76-2.71A1.4,1.4,0,0,0,372,235.16Z" style="fill: rgb(255, 255, 255); transform-origin: 375.768px 241.4px;" id="elaxs4rw0s35o" class="animable"></path><g id="el9j80h9wizv"><rect x="354.46" y="265.78" width="24.3" height="4.75" style="fill: rgb(166, 166, 166); transform-origin: 366.61px 268.155px; transform: rotate(17.71deg);" class="animable"></rect></g><g id="eljl1o395ggo"><rect x="352.78" y="271.03" width="24.3" height="4.75" style="fill: rgb(166, 166, 166); transform-origin: 364.93px 273.405px; transform: rotate(17.71deg);" class="animable"></rect></g><g id="el43nbdygosdj"><rect x="351.1" y="276.29" width="24.3" height="4.75" style="fill: rgb(166, 166, 166); transform-origin: 363.25px 278.665px; transform: rotate(17.71deg);" class="animable"></rect></g><g id="elf57vcyffwwk"><rect x="387.46" y="189.1" width="7.88" height="1" style="fill: rgb(219, 219, 219); transform-origin: 391.4px 189.6px; transform: rotate(-72.33deg);" class="animable"></rect></g><g id="elhu2kjgh0ela"><rect x="369.96" y="184.64" width="1" height="7.88" style="fill: rgb(219, 219, 219); transform-origin: 370.46px 188.58px; transform: rotate(-12.29deg);" class="animable"></rect></g><g id="elosj8ddoxfm"><rect x="351.31" y="194.23" width="1" height="7.88" style="fill: rgb(219, 219, 219); transform-origin: 351.81px 198.17px; transform: rotate(-42.3deg);" class="animable"></rect></g><g id="elavql49gul9a"><rect x="339.96" y="211.85" width="1" height="7.88" style="fill: rgb(219, 219, 219); transform-origin: 340.46px 215.79px; transform: rotate(-72.29deg);" class="animable"></rect></g><g id="el9v30kyikkwb"><rect x="335.5" y="236.24" width="7.88" height="1" style="fill: rgb(219, 219, 219); transform-origin: 339.44px 236.74px; transform: rotate(-12.29deg);" class="animable"></rect></g><g id="elz8krwjp65n"><rect x="405.75" y="254.23" width="1" height="7.88" style="fill: rgb(219, 219, 219); transform-origin: 406.25px 258.17px; transform: rotate(-42.29deg);" class="animable"></rect></g><g id="elh9fbwshm9su"><rect x="417.1" y="236.6" width="1" height="7.88" style="fill: rgb(219, 219, 219); transform-origin: 417.6px 240.54px; transform: rotate(-72.29deg);" class="animable"></rect></g><g id="elc9csicwz14v"><rect x="414.68" y="219.1" width="7.88" height="1" style="fill: rgb(219, 219, 219); transform-origin: 418.62px 219.6px; transform: rotate(-12.29deg);" class="animable"></rect></g><g id="eljupc10pknrg"><rect x="405.09" y="200.45" width="7.88" height="1" style="fill: rgb(219, 219, 219); transform-origin: 409.03px 200.95px; transform: rotate(-42.35deg);" class="animable"></rect></g></g><defs>     <filter id="active" height="200%">         <feMorphology in="SourceAlpha" result="DILATED" operator="dilate" radius="2"></feMorphology>                <feFlood flood-color="#32DFEC" flood-opacity="1" result="PINK"></feFlood>        <feComposite in="PINK" in2="DILATED" operator="in" result="OUTLINE"></feComposite>        <feMerge>            <feMergeNode in="OUTLINE"></feMergeNode>            <feMergeNode in="SourceGraphic"></feMergeNode>        </feMerge>    </filter>    <filter id="hover" height="200%">        <feMorphology in="SourceAlpha" result="DILATED" operator="dilate" radius="2"></feMorphology>                <feFlood flood-color="#ff0000" flood-opacity="0.5" result="PINK"></feFlood>        <feComposite in="PINK" in2="DILATED" operator="in" result="OUTLINE"></feComposite>        <feMerge>            <feMergeNode in="OUTLINE"></feMergeNode>            <feMergeNode in="SourceGraphic"></feMergeNode>        </feMerge>            <feColorMatrix type="matrix" values="0   0   0   0   0                0   1   0   0   0                0   0   0   0   0                0   0   0   1   0 "></feColorMatrix>    </filter></defs></svg>