<svg class="animated" id="freepik_stories-social-share" xmlns="http://www.w3.org/2000/svg" viewBox="0 0 500 500" version="1.1" xmlns:xlink="http://www.w3.org/1999/xlink" xmlns:svgjs="http://svgjs.com/svgjs"><style>svg#freepik_stories-social-share:not(.animated) .animable {opacity: 0;}svg#freepik_stories-social-share.animated #freepik--background-complete--inject-13 {animation: 1s 1 forwards cubic-bezier(.36,-0.01,.5,1.38) fadeIn,6s Infinite  linear floating;animation-delay: 0s,1s;}svg#freepik_stories-social-share.animated #freepik--Plant--inject-13 {animation: 1s 1 forwards cubic-bezier(.36,-0.01,.5,1.38) lightSpeedLeft;animation-delay: 0s;}svg#freepik_stories-social-share.animated #freepik--screen-2--inject-13 {animation: 1s 1 forwards cubic-bezier(.36,-0.01,.5,1.38) zoomIn,6s Infinite  linear heartbeat;animation-delay: 0s,1s;}svg#freepik_stories-social-share.animated #freepik--screen-1--inject-13 {animation: 1s 1 forwards cubic-bezier(.36,-0.01,.5,1.38) slideDown,1.5s Infinite  linear wind;animation-delay: 0s,1s;}svg#freepik_stories-social-share.animated #freepik--Character--inject-13 {animation: 1s 1 forwards cubic-bezier(.36,-0.01,.5,1.38) fadeIn;animation-delay: 0s;}svg#freepik_stories-social-share.animated #freepik--Table--inject-13 {animation: 1s 1 forwards cubic-bezier(.36,-0.01,.5,1.38) slideUp;animation-delay: 0s;}            @keyframes fadeIn {                0% {                    opacity: 0;                }                100% {                    opacity: 1;                }            }                    @keyframes floating {                0% {                    opacity: 1;                    transform: translateY(0px);                }                50% {                    transform: translateY(-10px);                }                100% {                    opacity: 1;                    transform: translateY(0px);                }            }                    @keyframes lightSpeedLeft {              from {                transform: translate3d(-50%, 0, 0) skewX(20deg);                opacity: 0;              }              60% {                transform: skewX(-10deg);                opacity: 1;              }              80% {                transform: skewX(2deg);              }              to {                opacity: 1;                transform: translate3d(0, 0, 0);              }            }                    @keyframes zoomIn {                0% {                    opacity: 0;                    transform: scale(0.5);                }                100% {                    opacity: 1;                    transform: scale(1);                }            }                    @keyframes heartbeat {                0% {                    transform: scale(1);                }                10% {                    transform: scale(1.1);                }                30% {                    transform: scale(1);                }                40% {                    transform: scale(1);                }                50% {                    transform: scale(1.1);                }                60% {                    transform: scale(1);                }                100% {                    transform: scale(1);                }            }                    @keyframes slideDown {                0% {                    opacity: 0;                    transform: translateY(-30px);                }                100% {                    opacity: 1;                    transform: translateY(0);                }            }                    @keyframes wind {                0% {                    transform: rotate( 0deg );                }                25% {                    transform: rotate( 1deg );                }                75% {                    transform: rotate( -1deg );                }            }                    @keyframes slideUp {                0% {                    opacity: 0;                    transform: translateY(30px);                }                100% {                    opacity: 1;                    transform: inherit;                }            }        </style><g id="freepik--background-complete--inject-13" class="animable" style="transform-origin: 249.885px 229.445px;"><path d="M87.59,279.56l-13.12.27-6.66.12c-2.23,0-4.47,0-6.7.05h-.44v-.44l-.06-11.19v-.51h.5l13.24.06c4.42,0,8.83.11,13.24.16h.28v.27c0,1.89-.09,3.78-.13,5.65Zm0,0-.14-5.66c0-1.86-.11-3.7-.13-5.53l.27.27c-4.41.05-8.82.16-13.24.16l-13.24.07.5-.5,0,11.19-.45-.45c2.18,0,4.36,0,6.55.05l6.58.12Z" style="fill: rgb(235, 235, 235); transform-origin: 74.24px 273.93px;" id="el4bxidxikggn" class="animable"></path><path d="M72.82,293.67l-13.12.27-6.66.12c-2.23,0-4.47,0-6.7.05H45.9v-.44l-.06-11.19V282h.5l13.24.06c4.41,0,8.83.11,13.24.16h.28v.27c0,1.89-.08,3.78-.13,5.65Zm0,0L72.68,288c-.05-1.86-.11-3.7-.13-5.53l.27.27c-4.41.05-8.83.16-13.24.16L46.34,283l.5-.49-.05,11.19-.45-.45c2.18,0,4.36,0,6.55,0l6.58.12Z" style="fill: rgb(235, 235, 235); transform-origin: 59.47px 288.055px;" id="elwaftpxna4ub" class="animable"></path><path d="M363.58,400.91l-13.12.27-6.66.12c-2.23,0-4.47,0-6.7.05h-.44v-.44l-.06-11.19v-.51h.5l13.24.06c4.42,0,8.83.11,13.24.16h.28v.27c0,1.89-.09,3.78-.14,5.65Zm0,0-.14-5.66c0-1.86-.11-3.7-.13-5.53l.27.27c-4.41.05-8.82.16-13.24.16l-13.24.07.5-.5-.05,11.19-.45-.45c2.18,0,4.36,0,6.55.05l6.58.12Z" style="fill: rgb(235, 235, 235); transform-origin: 350.23px 395.28px;" id="elu2vpwx98vz" class="animable"></path><path d="M348.81,415l-13.12.27-6.67.12c-2.22,0-4.46,0-6.69,0h-.44V415l-.05-11.19v-.51h.5l13.24.06c4.41,0,8.83.11,13.24.16h.28v.27c0,1.89-.08,3.78-.13,5.65Zm0,0-.14-5.66c-.05-1.86-.11-3.7-.13-5.53l.27.27c-4.41,0-8.83.16-13.24.16l-13.24.07.5-.5L322.78,415l-.45-.45c2.18,0,4.36,0,6.55.05l6.57.12Z" style="fill: rgb(235, 235, 235); transform-origin: 335.47px 409.345px;" id="el0qsessx7gmwp" class="animable"></path><path d="M453.66,293.67l-13.13.27-6.66.12c-2.22,0-4.46,0-6.69.05h-.45v-.44l-.05-11.19V282h.5l13.24.06c4.41,0,8.83.11,13.24.16h.27v.27c0,1.89-.08,3.78-.13,5.65Zm0,0-.14-5.66c0-1.86-.12-3.7-.13-5.53l.27.27c-4.41.05-8.83.16-13.24.16l-13.24.06.5-.49-.06,11.19-.44-.45c2.18,0,4.36,0,6.54,0l6.58.12Z" style="fill: rgb(235, 235, 235); transform-origin: 440.305px 288.055px;" id="elidpsppg614a" class="animable"></path><path d="M438.89,55.2l-13.13.28-6.66.11c-2.22,0-4.46,0-6.69.06H412V55.2l0-11.19v-.5h.51l13.24.06c4.41,0,8.82.12,13.24.17h.27V44c0,1.9-.09,3.79-.13,5.65Zm0,0-.14-5.65c-.05-1.87-.12-3.71-.14-5.54l.28.27c-4.42,0-8.83.16-13.24.17l-13.24.06.5-.5-.06,11.19-.44-.45c2.18,0,4.35,0,6.54.06l6.58.11Z" style="fill: rgb(235, 235, 235); transform-origin: 425.63px 49.58px;" id="el24p6mclfrd8" class="animable"></path><path d="M453.66,69.31l-13.13.28-6.66.11c-2.22,0-4.46,0-6.69.06h-.45v-.45l-.05-11.19v-.5h.5l13.24.06c4.41,0,8.83.12,13.24.17h.27v.27c0,1.9-.08,3.79-.13,5.65Zm0,0-.14-5.65c0-1.87-.12-3.71-.13-5.54l.27.27c-4.41,0-8.83.16-13.24.17l-13.24.06.5-.5-.06,11.19-.44-.45c2.18,0,4.36,0,6.54.06l6.58.11Z" style="fill: rgb(235, 235, 235); transform-origin: 440.305px 63.69px;" id="el8l2uizw5kyu" class="animable"></path><path d="M72.82,55.2l-13.12.28L53,55.59c-2.23,0-4.47,0-6.7.06H45.9V55.2L45.84,44v-.5h.5l13.24.06c4.41,0,8.83.12,13.24.17h.28V44c0,1.9-.08,3.79-.13,5.65Zm0,0-.14-5.65c-.05-1.87-.11-3.71-.13-5.54l.27.27c-4.41,0-8.83.16-13.24.17l-13.24.06.5-.5L46.79,55.2l-.45-.45c2.18,0,4.36,0,6.55.06l6.58.11Z" style="fill: rgb(235, 235, 235); transform-origin: 59.47px 49.575px;" id="elh135fcbx7be" class="animable"></path><path d="M240.33,218.26l-13.12.27-6.66.12c-2.23,0-4.47,0-6.7,0h-.44v-.44l-.05-11.19v-.51h.5l13.24.06c4.41,0,8.83.11,13.24.16h.28v.27c0,1.89-.08,3.78-.13,5.65Zm0,0-.14-5.66c-.05-1.86-.11-3.7-.13-5.53l.27.27c-4.41,0-8.83.16-13.24.16l-13.24.07.5-.5,0,11.19-.45-.45c2.18,0,4.36,0,6.55.06L227,218Z" style="fill: rgb(235, 235, 235); transform-origin: 226.99px 212.58px;" id="eltokla2ut76" class="animable"></path><rect x="378.5" y="50.97" width="67.59" height="81.99" style="fill: rgb(235, 235, 235); transform-origin: 412.295px 91.965px;" id="elf69hn254xa" class="animable"></rect><rect x="386.22" y="58.45" width="52.15" height="67.02" style="fill: rgb(255, 255, 255); transform-origin: 412.295px 91.96px;" id="elw6ylyiia7lb" class="animable"></rect><rect x="386.22" y="58.45" width="2.03" height="67.02" style="fill: rgb(199, 199, 199); transform-origin: 387.235px 91.96px;" id="elbq27pm0i3u" class="animable"></rect><rect x="446.09" y="50.97" width="2.03" height="81.99" style="fill: rgb(199, 199, 199); transform-origin: 447.105px 91.965px;" id="elspfhho0nc6o" class="animable"></rect><g id="elfd993mjh124"><rect x="413.46" y="73.95" width="12.3" height="36.63" style="fill: rgb(235, 235, 235); transform-origin: 419.61px 92.265px; transform: rotate(180deg);" class="animable"></rect></g><path d="M431.62,86.14H397.83v-19h33.79Zm-32.79-1h31.79v-17H398.83Z" style="fill: rgb(235, 235, 235); transform-origin: 414.725px 76.64px;" id="elzwa7fvns9k" class="animable"></path><rect x="378.5" y="253.02" width="67.59" height="81.99" style="fill: rgb(235, 235, 235); transform-origin: 412.295px 294.015px;" id="elkqmokkos0pg" class="animable"></rect><rect x="386.22" y="260.51" width="52.15" height="67.02" style="fill: rgb(255, 255, 255); transform-origin: 412.295px 294.02px;" id="eleoxy6a08iw6" class="animable"></rect><rect x="386.22" y="260.51" width="2.03" height="67.02" style="fill: rgb(199, 199, 199); transform-origin: 387.235px 294.02px;" id="elxaey6cac8ll" class="animable"></rect><rect x="446.09" y="253.02" width="2.03" height="81.99" style="fill: rgb(199, 199, 199); transform-origin: 447.105px 294.015px;" id="el2lf6vidpiow" class="animable"></rect><rect x="403.7" y="276.01" width="12.3" height="36.63" style="fill: rgb(235, 235, 235); transform-origin: 409.85px 294.325px;" id="elsnd60nthsag" class="animable"></rect><path d="M431.62,288.2H397.83V269.25h33.79Zm-32.79-1h31.79V270.25H398.83Z" style="fill: rgb(235, 235, 235); transform-origin: 414.725px 278.725px;" id="ely2ompo6gyhq" class="animable"></path><rect x="378.5" y="152.37" width="67.59" height="81.99" style="fill: rgb(235, 235, 235); transform-origin: 412.295px 193.365px;" id="el9pelflqpnx4" class="animable"></rect><rect x="386.22" y="159.85" width="52.15" height="67.02" style="fill: rgb(255, 255, 255); transform-origin: 412.295px 193.36px;" id="elmoxpr8jgb4" class="animable"></rect><rect x="386.22" y="159.85" width="2.03" height="67.02" style="fill: rgb(199, 199, 199); transform-origin: 387.235px 193.36px;" id="ela1v9a3meje8" class="animable"></rect><rect x="446.09" y="152.37" width="2.03" height="81.99" style="fill: rgb(199, 199, 199); transform-origin: 447.105px 193.365px;" id="el0t1t1hilqvt" class="animable"></rect><rect x="407.24" y="177.17" width="10.53" height="26.63" style="fill: rgb(235, 235, 235); transform-origin: 412.505px 190.485px;" id="elsq7283y5bcg" class="animable"></rect><path d="M429.37,212.22h-29.3V192.86h29.3Zm-28.3-1h27.3V193.86h-27.3Z" style="fill: rgb(219, 219, 219); transform-origin: 414.72px 202.54px;" id="el3pp4lfq9pux" class="animable"></path></g><g id="freepik--Plant--inject-13" class="animable" style="transform-origin: 106.514px 379.248px;"><path d="M88.71,349.38c15.62,15.3,18.24,39,15,59.68-.08.47-.81.34-.81-.1,0-4.72.14-9.39.13-14-.09-.22-.16-.42-.25-.63-4.07-3-7.82-6.32-10.14-10.9C90,378.24,89,372.46,87,367.1c-.19-.51.36-.36.72-.1,9.5,7,12.53,14.55,15.25,24.63a82.78,82.78,0,0,0-1.65-15.69c-2-9.57-6.11-19.05-13-26.14C88,349.52,88.44,349.11,88.71,349.38Z" style="fill: rgb(38, 50, 56); transform-origin: 95.9463px 379.324px;" id="el2fia2gm980m" class="animable"></path><path d="M85.77,351.16c-2.68.1-4.37,4.39-6.46,5.64a2,2,0,0,1-3-.46c-2.07-2.9.77-6.47,3.45-8.47-1.91.79-3.5,2.17-5.57,2.56a1.93,1.93,0,0,1-2.51-1.5c-.91-3.95,4-5.71,7.44-5.79-1.65-1.15-6.37-4.26-3.86-5.79s8.08,2.91,9.89,4.38c2.66,2.15,5.83,5.37,5.95,8.75C91.28,354.41,87.84,352,85.77,351.16Z" style="fill: rgb(255, 199, 39); transform-origin: 81.3381px 347.158px;" id="elxdij9nwwtg" class="animable"></path><g id="eleq0cn9tnv3v"><path d="M85.77,351.16c-2.68.1-4.37,4.39-6.46,5.64a2,2,0,0,1-3-.46c-2.07-2.9.77-6.47,3.45-8.47-1.91.79-3.5,2.17-5.57,2.56a1.93,1.93,0,0,1-2.51-1.5c-.91-3.95,4-5.71,7.44-5.79-1.65-1.15-6.37-4.26-3.86-5.79s8.08,2.91,9.89,4.38c2.66,2.15,5.83,5.37,5.95,8.75C91.28,354.41,87.84,352,85.77,351.16Z" style="opacity: 0.1; transform-origin: 81.3381px 347.158px;" class="animable"></path></g><path d="M86.55,351.83c-3.44-1.56-10,.68-10.6-.62-1.14-2.64,4.14-4.46,7-4.81-2.63-.71-7.65-1.84-7.5-4.37.19-3.09,7.71-.43,11.52,2.48,4.79,3.68,4.76,7.22,4,7.94C89.84,353.42,87.12,352.09,86.55,351.83Z" style="fill: rgb(255, 199, 39); transform-origin: 83.397px 346.725px;" id="el5j69v62v0vk" class="animable"></path><path d="M124.29,347.87c-16.2,14.69-19.72,38.23-17.21,59.06.06.48.79.38.81-.07.18-4.71.22-9.39.41-14l.26-.62c4.19-2.81,8.06-6,10.56-10.51,2.8-5,4-10.77,6.24-16.05.21-.51-.34-.38-.71-.13-9.76,6.64-13.08,14.07-16.19,24a84.53,84.53,0,0,1,2.25-15.62c2.42-9.47,6.84-18.79,14-25.62C125,348,124.57,347.61,124.29,347.87Z" style="fill: rgb(38, 50, 56); transform-origin: 115.877px 377.516px;" id="elfj1xes7ndjr" class="animable"></path><path d="M127.15,349.76c2.68.19,4.2,4.55,6.25,5.88a2,2,0,0,0,3-.35c2.18-2.82-.53-6.5-3.12-8.59,1.88.85,3.41,2.3,5.46,2.77a2,2,0,0,0,2.57-1.41c1.06-3.91-3.82-5.86-7.22-6.07,1.69-1.08,6.53-4,4.08-5.64s-8.19,2.61-10.05,4c-2.73,2.06-6,5.16-6.27,8.52C121.52,352.8,125.05,350.51,127.15,349.76Z" style="fill: rgb(255, 199, 39); transform-origin: 131.643px 346.071px;" id="el9h24cdbt23d" class="animable"></path><g id="elo1wv8fvo0g"><path d="M127.15,349.76c2.68.19,4.2,4.55,6.25,5.88a2,2,0,0,0,3-.35c2.18-2.82-.53-6.5-3.12-8.59,1.88.85,3.41,2.3,5.46,2.77a2,2,0,0,0,2.57-1.41c1.06-3.91-3.82-5.86-7.22-6.07,1.69-1.08,6.53-4,4.08-5.64s-8.19,2.61-10.05,4c-2.73,2.06-6,5.16-6.27,8.52C121.52,352.8,125.05,350.51,127.15,349.76Z" style="opacity: 0.1; transform-origin: 131.643px 346.071px;" class="animable"></path></g><path d="M126.35,350.39c3.49-1.43,10,1.07,10.61-.21,1.24-2.6-4-4.61-6.79-5.07,2.64-.61,7.71-1.55,7.65-4.09-.07-3.09-7.68-.72-11.6,2.05-4.93,3.49-5,7-4.27,7.77C123,351.86,125.77,350.63,126.35,350.39Z" style="fill: rgb(255, 199, 39); transform-origin: 129.717px 345.401px;" id="el51etqf0npzu" class="animable"></path><path d="M107.73,386.66a159.53,159.53,0,0,1-5,23.22.58.58,0,0,1-1.13-.22c1.06-7.16,3-14.19,4.06-21.34a107.16,107.16,0,0,0,1.25-21.91c-.68-12.06-4-24.89-11.83-34.33-.17-.22.2-.54.37-.33,15.76,18.37,13.25,40.9,13.24,42.92,2.23-7.61,4.53-16.33,13-24.07.36-.34.64-.18.58.39-1.51,14.11-5.43,21.47-13.61,29Q108.26,383.36,107.73,386.66Z" style="fill: rgb(38, 50, 56); transform-origin: 108.657px 370.981px;" id="el3ovzrfh9br" class="animable"></path><path d="M94.91,334.2c-2.83-1.26-6.74,2.35-9.55,2.59a2.32,2.32,0,0,1-2.84-2c-.7-4.05,4.06-6.33,7.84-7.05-2.38-.15-4.73.49-7.07-.15a2.24,2.24,0,0,1-1.85-2.82c1-4.56,7.07-3.89,10.64-2.26-1.13-2-4.47-7.63-1.09-8s6.92,7.1,8.06,9.53c1.67,3.57,3.33,8.51,1.76,12.07C99,340.34,96.64,336.09,94.91,334.2Z" style="fill: rgb(255, 199, 39); transform-origin: 91.3988px 326.209px;" id="elxot5kdqrlsc" class="animable"></path><g id="ellcc2rvz1t8k"><path d="M94.91,334.2c-2.83-1.26-6.74,2.35-9.55,2.59a2.32,2.32,0,0,1-2.84-2c-.7-4.05,4.06-6.33,7.84-7.05-2.38-.15-4.73.49-7.07-.15a2.24,2.24,0,0,1-1.85-2.82c1-4.56,7.07-3.89,10.64-2.26-1.13-2-4.47-7.63-1.09-8s6.92,7.1,8.06,9.53c1.67,3.57,3.33,8.51,1.76,12.07C99,340.34,96.64,336.09,94.91,334.2Z" style="opacity: 0.1; transform-origin: 91.3988px 326.209px;" class="animable"></path></g><path d="M95.38,335.28c-2.78-3.35-10.76-4.34-10.68-6,.15-3.31,6.53-2.54,9.67-1.48-2.37-2.05-7-5.76-5.58-8.3,1.75-3.11,8.22,3.43,10.7,8.37,3.12,6.23,1.3,9.89.12,10.23C98,338.58,95.84,335.83,95.38,335.28Z" style="fill: rgb(255, 199, 39); transform-origin: 92.9602px 328.424px;" id="elcq4qovaqe5d" class="animable"></path><path d="M118.09,390.91,125,444H82.76c.87-4.71,8.74-53.16,8.74-53.16Z" style="fill: rgb(255, 199, 39); transform-origin: 103.88px 417.42px;" id="elgi3jr6qj0nc" class="animable"></path></g><g id="freepik--screen-2--inject-13" class="animable animator-active" style="transform-origin: 375.24px 185.375px;"><rect x="295.42" y="82.97" width="159.75" height="204.97" style="fill: rgb(255, 255, 255); transform-origin: 375.295px 185.455px;" id="el856prywdet8" class="animable"></rect><path d="M455.17,287.94l-159.75.11h-.11v-.11l-.14-205v-.24h.25l159.75.1h.14V83Zm0,0L455,83l.14.15-159.75.1.25-.25-.14,205-.11-.11Z" style="fill: rgb(38, 50, 56); transform-origin: 375.24px 185.375px;" id="el4yqjybj9pxh" class="animable"></path><path d="M311.7,99.33a4.61,4.61,0,0,1-1.31.55,4.51,4.51,0,0,1-3.46-.55,4.53,4.53,0,1,1,4.77,0Z" style="fill: rgb(55, 71, 79); transform-origin: 309.315px 95.4796px;" id="elfookaxnjv3" class="animable"></path><path d="M310.69,95a1.38,1.38,0,1,1-1.38-1.38A1.38,1.38,0,0,1,310.69,95Z" style="fill: rgb(255, 255, 255); transform-origin: 309.31px 95px;" id="elfm0dxnsly3h" class="animable"></path><path d="M311.7,98.76v.57a4.61,4.61,0,0,1-1.31.55,4.51,4.51,0,0,1-3.46-.55v-.57a2.39,2.39,0,0,1,4.77,0Z" style="fill: rgb(255, 255, 255); transform-origin: 309.315px 98.2677px;" id="elstqdud0kmeo" class="animable"></path><path d="M440.48,95a.43.43,0,0,1,.43.42.42.42,0,0,1-.43.42.42.42,0,0,1-.42-.42A.42.42,0,0,1,440.48,95Z" id="eljdivtofn7e" class="animable" style="transform-origin: 440.485px 95.4201px;"></path><path d="M441.79,95a.43.43,0,0,1,.43.42.42.42,0,0,1-.43.42.42.42,0,0,1-.42-.42A.42.42,0,0,1,441.79,95Z" id="el5xllwuamfz3" class="animable" style="transform-origin: 441.795px 95.4201px;"></path><path d="M443.1,95a.42.42,0,0,1,.43.42.43.43,0,1,1-.43-.42Z" id="elfhnfalwr5gi" class="animable" style="transform-origin: 443.1px 95.4299px;"></path><path d="M318.54,95.39c2.23-.21,4.46-.3,6.69-.38s4.46-.11,6.69-.12,4.46,0,6.69.12l3.35.14c1.12.08,2.23.13,3.35.24-1.12.11-2.23.16-3.35.25l-3.35.14c-2.23.09-4.46.1-6.69.11s-4.46,0-6.69-.12S320.77,95.6,318.54,95.39Z" style="fill: rgb(38, 50, 56); transform-origin: 331.925px 95.39px;" id="elg5lf6daircd" class="animable"></path><rect x="300.19" y="107.91" width="150.22" height="131.85" style="fill: rgb(235, 235, 235); transform-origin: 375.3px 173.835px;" id="elmhdke3hay0i" class="animable"></rect><path d="M313.05,253.89a10.82,10.82,0,0,1-2.34,2.75,19.55,19.55,0,0,1-1.56,1.23h-.42a14.12,14.12,0,0,1-3.9-4,4.34,4.34,0,0,1-.26-4.16,2,2,0,0,1,1.83-1,2.88,2.88,0,0,1,2.54,1.78,2.89,2.89,0,0,1,2.54-1.78,2.06,2.06,0,0,1,1.84,1A4.37,4.37,0,0,1,313.05,253.89Z" style="fill: rgb(255, 199, 39); transform-origin: 308.943px 253.289px;" id="elo6k1ru2sa5f" class="animable"></path><path d="M341.72,258.39l-.65-.12-1.33-5L336.66,250l.27-.62h10.85l.3.59Zm-4-8.33,2.57,2.81.09.15,1.16,4.33,5.46-7.29Z" style="fill: rgb(235, 235, 235); transform-origin: 342.37px 253.885px;" id="eli4futyfeag7" class="animable"></path><g id="ell4duf8vd9gb"><rect x="339.34" y="251.04" width="9.18" height="0.74" style="fill: rgb(235, 235, 235); transform-origin: 343.93px 251.41px; transform: rotate(-23.93deg);" class="animable"></rect></g><path d="M325.34,257.93A4.63,4.63,0,1,1,330,253.3a4.54,4.54,0,0,1-.2,1.32l.7,2.85-.44.45-2.44-.58A4.56,4.56,0,0,1,325.34,257.93Zm0-8.52a3.89,3.89,0,1,0,2,7.23l.28-.05,2,.47L329,254.7v-.21a3.75,3.75,0,0,0,.19-1.19A3.9,3.9,0,0,0,325.34,249.41Z" style="fill: rgb(235, 235, 235); transform-origin: 325.62px 253.3px;" id="eleo2fl910q0g" class="animable"></path><path d="M439.9,257.86l-.59-.3V249.7l.37-.37h6.39l.37.37v7.86l-.58.3-3-2.71Zm.15-7.8v6.78l2.61-2.44h.43l2.61,2.44v-6.78Z" style="fill: rgb(235, 235, 235); transform-origin: 442.875px 253.595px;" id="elrngjxri549l" class="animable"></path><path d="M304.15,265.18c5.34-.21,10.68-.3,16-.38s10.68-.08,16-.12,10.68,0,16,.11l8,.14c2.68.09,5.35.13,8,.25-2.67.11-5.34.16-8,.24l-8,.14c-5.34.08-10.68.08-16,.12s-10.68,0-16-.12S309.49,265.38,304.15,265.18Z" style="fill: rgb(235, 235, 235); transform-origin: 336.15px 265.18px;" id="ellbum199uni" class="animable"></path><path d="M304.15,272.86c10.09-.2,20.17-.3,30.25-.38l30.25-.12,30.24.12,15.12.14,15.13.24-15.13.25-15.12.14-30.24.11-30.25-.11C324.32,273.17,314.24,273.07,304.15,272.86Z" style="fill: rgb(235, 235, 235); transform-origin: 364.645px 272.86px;" id="elq5l08stblxj" class="animable"></path><path d="M304.15,276.71c8.07-.21,16.14-.31,24.2-.39l24.2-.11,24.2.11,12.1.14,12.1.25-12.1.24-12.1.14-24.2.12-24.2-.12C320.29,277,312.22,276.91,304.15,276.71Z" style="fill: rgb(235, 235, 235); transform-origin: 352.55px 276.71px;" id="elgn4c7gtiw1a" class="animable"></path><path d="M383,237.6a21.26,21.26,0,0,1-.17,2.16h-15.5c7.07-3.49,15.19-6.15,15.62-3.39A7.38,7.38,0,0,1,383,237.6Z" style="fill: rgb(255, 199, 39); transform-origin: 375.168px 237.492px;" id="el8aj6rkjnnc" class="animable"></path><g id="elc9pvht0mvei"><path d="M383,237.6a21.26,21.26,0,0,1-.17,2.16h-15.5c7.07-3.49,15.19-6.15,15.62-3.39A7.38,7.38,0,0,1,383,237.6Z" style="opacity: 0.2; transform-origin: 375.168px 237.492px;" class="animable"></path></g><path d="M337.67,239.76H301.43a47.29,47.29,0,0,1-.12-5,2.18,2.18,0,0,1,.23-.89c2.93-6.33,34.4-7.66,36.14,1.14A20,20,0,0,1,337.67,239.76Z" style="fill: rgb(255, 199, 39); transform-origin: 319.553px 234.263px;" id="eljbf3aji3wuc" class="animable"></path><g id="el8kkif7jk7am"><path d="M337.67,239.76H301.43a47.29,47.29,0,0,1-.12-5,2.18,2.18,0,0,1,.23-.89c2.93-6.33,34.4-7.66,36.14,1.14A20,20,0,0,1,337.67,239.76Z" style="opacity: 0.2; transform-origin: 319.553px 234.263px;" class="animable"></path></g><path d="M408.78,160.18A26.48,26.48,0,0,0,416.11,143c.41-10.64-8.81-26.27-12.68-28.21,0,0-7.78,16.6-9.93,33.84Z" style="fill: rgb(255, 199, 39); transform-origin: 404.812px 137.485px;" id="el501u3pjqc08" class="animable"></path><g id="el1vntptto2a"><path d="M408.78,160.18A26.48,26.48,0,0,0,416.11,143c.41-10.64-8.81-26.27-12.68-28.21,0,0-7.78,16.6-9.93,33.84Z" style="fill: rgb(255, 255, 255); opacity: 0.4; transform-origin: 404.812px 137.485px;" class="animable"></path></g><path d="M408.9,157.71a21.49,21.49,0,0,0,5.94-13.88c.33-8.62-7.14-21.27-10.27-22.84,0,0-6.3,13.44-8,27.39Z" style="fill: rgb(255, 199, 39); transform-origin: 405.71px 139.35px;" id="elmxox8yc6e2" class="animable"></path><path d="M415.91,208.35c-3.57,1.46-23.12-1.09-23.12-1.09s-3.2,4-3.36,5.58c0,.18-.13.72-.32,1.56-.32,1.43-.88,3.7-1.56,6.42-1.25,4.93-2.94,11.31-4.55,16.78-.21.74-.43,1.46-.64,2.16H300.19V211.67c3.77-.74,7.47-1.47,10.16-2.24,5.21-1.48,21.15-7.67,30.52-12.05a52.73,52.73,0,0,0,5.92-3.09c.71-.46,1.12-.83,1.16-1.08.25-1.55,1.63-16,3.78-26.38h0c.15-.74.3-1.45.46-2.14.78-3.37,1.65-6.12,2.59-7.54,1.64-2.48,6.74-5.36,12.62-7.68,1.2-.47,2.44-.92,3.69-1.34,7-2.33,14.21-3.66,17.8-2.57a35.44,35.44,0,0,1,4.78,2c1.81.88,3.79,1.94,5.8,3.09l0,0c3.58,2,7.23,4.36,10.07,6.36l1.21.86c2.31,1.7,3.86,3.06,4,3.67.64,2.17-.27,16.48.34,17.46,0,0,7.51,8,12.22,13.06C430,194.82,419.48,206.89,415.91,208.35Z" style="fill: rgb(255, 199, 39); transform-origin: 363.968px 192.467px;" id="eldxhal6pnwiw" class="animable"></path><g id="elbel02ouay4u"><path d="M415.91,208.35c-3.57,1.46-23.12-1.09-23.12-1.09s-3.2,4-3.36,5.58c0,.18-.13.72-.32,1.56-.32,1.43-.88,3.7-1.56,6.42-1.25,4.93-2.94,11.31-4.55,16.78-.21.74-.43,1.46-.64,2.16H300.19V211.67c3.77-.74,7.47-1.47,10.16-2.24,5.21-1.48,21.15-7.67,30.52-12.05a52.73,52.73,0,0,0,5.92-3.09c.71-.46,1.12-.83,1.16-1.08.25-1.55,1.63-16,3.78-26.38h0c.15-.74.3-1.45.46-2.14.78-3.37,1.65-6.12,2.59-7.54,1.64-2.48,6.74-5.36,12.62-7.68,1.2-.47,2.44-.92,3.69-1.34,7-2.33,14.21-3.66,17.8-2.57a35.44,35.44,0,0,1,4.78,2c1.81.88,3.79,1.94,5.8,3.09l0,0c3.58,2,7.23,4.36,10.07,6.36l1.21.86c2.31,1.7,3.86,3.06,4,3.67.64,2.17-.27,16.48.34,17.46,0,0,7.51,8,12.22,13.06C430,194.82,419.48,206.89,415.91,208.35Z" style="fill: rgb(255, 255, 255); opacity: 0.4; transform-origin: 363.968px 192.467px;" class="animable"></path></g><path d="M388.39,178.51c0-.12-.27.17-.26.3.29,3.18,0,6.87-3.08,8.1-.1,0-.08.2,0,.18C388.92,186.38,389.21,181.48,388.39,178.51Z" style="fill: rgb(38, 50, 56); transform-origin: 386.873px 182.786px;" id="elax9bjcl9ta9" class="animable"></path><path d="M385.08,175.35c-5.64-.08-5.52,10.22-.29,10.3S389.81,175.42,385.08,175.35Z" style="fill: rgb(38, 50, 56); transform-origin: 384.764px 180.5px;" id="elata8hnydor" class="animable"></path><path d="M407.68,177.1c0-.12.26.12.28.25.27,3.18,1.12,6.78,4.11,7.51.09,0,.1.18,0,.18C408.51,185,407.43,180.16,407.68,177.1Z" style="fill: rgb(38, 50, 56); transform-origin: 409.893px 181.054px;" id="elrm50wz6z27" class="animable"></path><path d="M410.11,173.46c5.05-1,6.65,9.21,2,10.11S405.89,174.28,410.11,173.46Z" style="fill: rgb(38, 50, 56); transform-origin: 411.261px 178.509px;" id="el0gg3y870idmv" class="animable"></path><path d="M420.26,201.08a33.87,33.87,0,0,1-2.51,2.57,4.43,4.43,0,0,1-1.36.91c-.11.29-.14-.54,0-1.06.19-1.15.5-2.31.8-3.46s.64-2.3,1-3.44l-1-.39c-.69,1.33-1.38,2.66-2.11,4a39.83,39.83,0,0,1-2.33,3.78,6.22,6.22,0,0,1-.67.83,3,3,0,0,1-.35.3.29.29,0,0,1-.27,0,3.72,3.72,0,0,1-1.51-1.29,31.08,31.08,0,0,1-2.48-3.74,21.47,21.47,0,0,0,2,4.07,6.83,6.83,0,0,0,.72.93,2.49,2.49,0,0,0,1.06.74.93.93,0,0,0,.41,0,1.1,1.1,0,0,0,.41-.12,3.26,3.26,0,0,0,.54-.39,7.43,7.43,0,0,0,.82-.87,31.46,31.46,0,0,0,2.53-3.81c.76-1.32,1.48-2.64,2.14-4l-1-.38c-.34,1.16-.65,2.33-.91,3.51a23.87,23.87,0,0,0-.61,3.61,5.24,5.24,0,0,0,0,1,1.21,1.21,0,0,0,.19.6.68.68,0,0,0,.76.18,4.06,4.06,0,0,0,1.53-1.19A23.37,23.37,0,0,0,420.26,201.08Z" style="fill: rgb(38, 50, 56); transform-origin: 413.865px 201.031px;" id="el08qcx3lk3sn" class="animable"></path><path d="M417.47,197.29c-1.21,0-8.11-2.67-7.61-4.17.86-2.57,12-3.29,13.2-1.45C423.87,192.88,419,197.26,417.47,197.29Z" style="fill: rgb(38, 50, 56); transform-origin: 416.492px 193.966px;" id="elppv6wmfmqr" class="animable"></path><path d="M389.7,214.52c.72.24-.73,5.51-1.31,6.12s-24.52,1.14-29.5-.95S340.62,198.39,340.8,197s4.7-3.81,5.52-3.23,12.92,15.53,16.83,17.09C369.78,213.55,388,214,389.7,214.52Z" style="fill: rgb(69, 90, 100); transform-origin: 365.347px 207.433px;" id="elb2zhlqm0x2s" class="animable"></path><path d="M354.45,168.92a32.73,32.73,0,0,1-13.24-19.75c-2.79-13.23,6-35,10.61-38.33,0,0,13.69,19,20.17,40Z" style="fill: rgb(255, 199, 39); transform-origin: 356.332px 139.88px;" id="ellpm3l0u69y" class="animable"></path><g id="elo020pp37jig"><path d="M354.45,168.92a32.73,32.73,0,0,1-13.24-19.75c-2.79-13.23,6-35,10.61-38.33,0,0,13.69,19,20.17,40Z" style="fill: rgb(255, 255, 255); opacity: 0.4; transform-origin: 356.332px 139.88px;" class="animable"></path></g><path d="M353.77,165.86a26.53,26.53,0,0,1-10.73-16c-2.26-10.71,4.82-28.33,8.59-31,0,0,11.09,15.35,16.34,32.42Z" style="fill: rgb(255, 199, 39); transform-origin: 355.287px 142.36px;" id="el4y08t9t2d3c" class="animable"></path><path d="M314.58,239.76H300.19v-6q.68,0,1.35.09C308.11,234.41,313.73,236.26,314.58,239.76Z" style="fill: rgb(255, 199, 39); transform-origin: 307.385px 236.76px;" id="elqphfvbn22w" class="animable"></path><path d="M424.53,137.64c1.13,6.35,6.71,11.54,6.71,11.54s7.49-1.37,11.86-6.12c3.63-3.95,3.64-9.37.35-11.52-4.72-3.07-8.68,5.56-8.68,5.56s1.3-9.41-4.34-9.36C426.5,127.78,423.59,132.35,424.53,137.64Z" style="fill: rgb(255, 199, 39); transform-origin: 435.112px 138.46px;" id="elc3moq9xmvih" class="animable"></path><path d="M311.09,160.32c3.93,2.67,9.53,2.4,9.53,2.4s3.13-4.66,2.87-9.39c-.21-4-3.06-6.74-5.88-6.11-4.05.91-1.54,7.43-1.54,7.43s-4.29-5.52-7.16-2.52C306.91,154.22,307.83,158.1,311.09,160.32Z" style="fill: rgb(255, 199, 39); transform-origin: 315.682px 154.929px;" id="elhjyqoggd01j" class="animable"></path><path d="M326.44,132.35a11.88,11.88,0,0,0,5,4.15,11.76,11.76,0,0,0,4.39-4.79c1-2.42.09-4.9-1.77-5.33-2.68-.61-3,4-3,4s-1-4.52-3.55-3.54C325.69,127.51,325.13,130.09,326.44,132.35Z" style="fill: rgb(255, 199, 39); transform-origin: 330.982px 131.412px;" id="elsf9rx5ed6r9" class="animable"></path></g><g id="freepik--screen-1--inject-13" class="animable" style="transform-origin: 141.16px 149.705px;"><rect x="61.34" y="47.31" width="159.75" height="204.97" style="fill: rgb(255, 255, 255); transform-origin: 141.215px 149.795px;" id="el3eswfvbv3y6" class="animable"></rect><path d="M221.09,252.28l-159.75.1h-.11v-.1l-.14-205v-.25h.25l159.75.11h.14v.14Zm0,0-.14-205,.14.14-159.75.11.25-.25-.14,205-.11-.11Z" style="fill: rgb(38, 50, 56); transform-origin: 141.16px 149.705px;" id="el662wm7e14er" class="animable"></path><path d="M77.61,63.66a4.18,4.18,0,0,1-1.3.55,4.54,4.54,0,1,1,1.3-.55Z" style="fill: rgb(55, 71, 79); transform-origin: 75.2125px 59.8046px;" id="elsa6zpvz64op" class="animable"></path><path d="M76.61,59.29a1.38,1.38,0,1,1-1.38-1.38A1.38,1.38,0,0,1,76.61,59.29Z" style="fill: rgb(255, 255, 255); transform-origin: 75.23px 59.29px;" id="elnrwp5xgidps" class="animable"></path><path d="M77.61,63.1v.56a4.18,4.18,0,0,1-1.3.55,4.5,4.5,0,0,1-3.46-.55V63.1a2.38,2.38,0,1,1,4.76,0Z" style="fill: rgb(255, 255, 255); transform-origin: 75.23px 62.5307px;" id="elcaj03k27xgq" class="animable"></path><path d="M206.4,59.3a.43.43,0,0,1,0,.85.43.43,0,0,1,0-.85Z" id="el8guz6arh7er" class="animable" style="transform-origin: 206.4px 59.725px;"></path><path d="M207.71,59.3a.43.43,0,0,1,0,.85.43.43,0,0,1,0-.85Z" id="el8lepxt7t1d3" class="animable" style="transform-origin: 207.71px 59.725px;"></path><path d="M209,59.3a.43.43,0,1,1,0,.85.43.43,0,0,1,0-.85Z" id="eli3q6ckok1ml" class="animable" style="transform-origin: 209.065px 59.725px;"></path><path d="M84.45,59.72c2.23-.2,4.46-.3,6.7-.38s4.46-.1,6.69-.12,4.46,0,6.69.12l3.35.14c1.11.08,2.23.13,3.34.24-1.11.12-2.23.16-3.34.25l-3.35.14c-2.23.09-4.46.1-6.69.11s-4.46,0-6.69-.11S86.68,59.93,84.45,59.72Z" style="fill: rgb(38, 50, 56); transform-origin: 97.835px 59.7181px;" id="elh3bc6cutc7k" class="animable"></path><rect x="66.11" y="72.24" width="150.22" height="131.85" style="fill: rgb(69, 90, 100); transform-origin: 141.22px 138.165px;" id="elw2h2y8hqrh" class="animable"></rect><path d="M79,218.23A11.18,11.18,0,0,1,76.63,221a18,18,0,0,1-1.57,1.22h-.41a14,14,0,0,1-3.9-4,4.39,4.39,0,0,1-.27-4.17A2.05,2.05,0,0,1,72.31,213a2.87,2.87,0,0,1,2.54,1.78A2.89,2.89,0,0,1,77.39,213a2.07,2.07,0,0,1,1.84,1.05A4.36,4.36,0,0,1,79,218.23Z" style="fill: rgb(255, 199, 39); transform-origin: 74.867px 217.61px;" id="eljpag7bqfwxi" class="animable"></path><path d="M107.64,222.73l-.65-.13-1.34-5-3.07-3.36.27-.62H113.7l.3.59Zm-4-8.33,2.57,2.8.08.16,1.16,4.32L113,214.4Z" style="fill: rgb(235, 235, 235); transform-origin: 108.29px 218.175px;" id="elptng2lwda1k" class="animable"></path><g id="elxqbudv4bkn"><rect x="105.25" y="215.37" width="9.18" height="0.74" style="fill: rgb(235, 235, 235); transform-origin: 109.84px 215.74px; transform: rotate(-23.93deg);" class="animable"></rect></g><path d="M91.25,222.26a4.63,4.63,0,1,1,4.63-4.63,4.53,4.53,0,0,1-.19,1.32l.7,2.85-.44.45-2.44-.57A4.69,4.69,0,0,1,91.25,222.26Zm0-8.52a3.89,3.89,0,1,0,2,7.23l.27,0,2,.46L95,219v-.2a4.07,4.07,0,0,0,.19-1.2A3.9,3.9,0,0,0,91.25,213.74Z" style="fill: rgb(235, 235, 235); transform-origin: 91.505px 217.63px;" id="el6qjitoeuysp" class="animable"></path><path d="M205.82,222.19l-.59-.3V214l.37-.37H212l.37.37v7.86l-.59.3-3-2.7Zm.15-7.79v6.77l2.61-2.44H209l2.61,2.44V214.4Z" style="fill: rgb(235, 235, 235); transform-origin: 208.8px 217.91px;" id="elornxgj403kd" class="animable"></path><path d="M70.07,229.51c5.34-.21,10.68-.3,16-.38s10.68-.08,16-.12,10.68,0,16,.12l8,.13c2.67.09,5.34.14,8,.25-2.67.11-5.34.16-8,.25l-8,.13c-5.34.08-10.68.08-16,.12s-10.68,0-16-.12S75.41,229.72,70.07,229.51Z" style="fill: rgb(235, 235, 235); transform-origin: 102.07px 229.51px;" id="elweit8fhzp1" class="animable"></path><path d="M70.07,237.2c10.08-.21,20.16-.31,30.25-.39l30.24-.11,30.25.11,15.12.14,15.12.25-15.12.24-15.12.14-30.25.12-30.24-.12C90.23,237.5,80.15,237.4,70.07,237.2Z" style="fill: rgb(235, 235, 235); transform-origin: 130.56px 237.2px;" id="elkrev2hqased" class="animable"></path><path d="M70.07,241c8.07-.21,16.13-.3,24.2-.38l24.2-.12,24.2.11,12.1.14,12.1.25-12.1.24-12.1.14-24.2.12-24.2-.12C86.2,241.34,78.14,241.24,70.07,241Z" style="fill: rgb(235, 235, 235); transform-origin: 118.47px 241px;" id="elm4gqspfz32" class="animable"></path><path d="M216.32,112.35V166.5a70.49,70.49,0,0,1-37.27,37.59H123.82A70.32,70.32,0,0,1,130.7,72.24h41.47A70.44,70.44,0,0,1,216.32,112.35Z" style="fill: rgb(219, 219, 219); transform-origin: 148.727px 138.165px;" id="elckjvz6frcvq" class="animable"></path><g id="elx1ruyo8yvo"><circle cx="151.44" cy="139.42" r="48.71" style="fill: rgb(199, 199, 199); transform-origin: 151.44px 139.42px; transform: rotate(-79.52deg);" class="animable"></circle></g><path d="M154.34,105.88c.1,9.62,20.43,5.21,30.45,9.43s22.34,19.21,29,13.49-3-22.6-23.07-29.5C170.08,92.2,154.25,96.92,154.34,105.88Z" style="fill: rgb(255, 199, 39); transform-origin: 185.111px 112.972px;" id="elkkqnl41rf8p" class="animable"></path><g id="elfxo5yhcykfc"><path d="M154.34,105.88c.1,9.62,20.43,5.21,30.45,9.43s22.34,19.21,29,13.49-3-22.6-23.07-29.5C170.08,92.2,154.25,96.92,154.34,105.88Z" style="opacity: 0.5; transform-origin: 185.111px 112.972px;" class="animable"></path></g><g id="elpta60vufd5"><g style="opacity: 0.2; transform-origin: 186.917px 107.285px;" class="animable"><path d="M172.42,96.12s-6.1,3.23-5.55,10.11A76.49,76.49,0,0,1,172.42,96.12Z" id="elgabhs45iv6" class="animable" style="transform-origin: 169.627px 101.175px;"></path><path d="M181.28,96.74s-6.1,3.22-5.55,10.1A77.24,77.24,0,0,1,181.28,96.74Z" id="el8cmifjv7ezb" class="animable" style="transform-origin: 178.487px 101.79px;"></path><path d="M190.13,99.32s-6.34,2.72-6.35,9.62A76.68,76.68,0,0,1,190.13,99.32Z" id="elzoyazs2hzy" class="animable" style="transform-origin: 186.955px 104.13px;"></path><path d="M198.9,103.17s-6.35,2.72-6.36,9.62A76,76,0,0,1,198.9,103.17Z" id="elfopgzbqaw" class="animable" style="transform-origin: 195.72px 107.98px;"></path><path d="M207,108.83s-6.34,2.72-6.35,9.62A76.68,76.68,0,0,1,207,108.83Z" id="el487yeybaveb" class="animable" style="transform-origin: 203.825px 113.64px;"></path></g></g><g id="elvtrjwvke8um"><g style="opacity: 0.1; transform-origin: 184.833px 113.934px;" class="animable"><path d="M213.77,121.61a.5.5,0,0,1-1-.27.5.5,0,0,1,1,.27Z" id="els8erctvoa9" class="animable" style="transform-origin: 213.27px 121.475px;"></path><path d="M212.39,122.82a.85.85,0,0,1-1,.6.86.86,0,1,1,.46-1.65A.85.85,0,0,1,212.39,122.82Z" id="eln0nw6saqkfc" class="animable" style="transform-origin: 211.556px 122.577px;"></path><path d="M214.16,123.59a.67.67,0,1,1-1.29-.36.69.69,0,0,1,.83-.47A.68.68,0,0,1,214.16,123.59Z" id="elwzqc8qgpeq" class="animable" style="transform-origin: 213.512px 123.42px;"></path><path d="M156.8,104.61a.67.67,0,1,1-.47-.82A.66.66,0,0,1,156.8,104.61Z" id="elnop5sg7ar9e" class="animable" style="transform-origin: 156.154px 104.436px;"></path></g></g><path d="M151.8,123.54c-1.26,9.54,19.49,8,28.81,13.64s19.4,22.18,26.76,17.45.19-22.8-18.67-32.47C169.31,112.23,153,114.66,151.8,123.54Z" style="fill: rgb(255, 199, 39); transform-origin: 180.98px 135.597px;" id="elkvdrhfy3pa" class="animable"></path><g id="ellihfm4fpwvs"><path d="M151.8,123.54c-1.26,9.54,19.49,8,28.81,13.64s19.4,22.18,26.76,17.45.19-22.8-18.67-32.47C169.31,112.23,153,114.66,151.8,123.54Z" style="opacity: 0.5; transform-origin: 180.98px 135.597px;" class="animable"></path></g><g id="el99t5llei8ef"><g style="opacity: 0.2; transform-origin: 183.815px 129.485px;" class="animable"><path d="M171.07,116.44s-6.49,2.33-6.92,9.22A76.71,76.71,0,0,1,171.07,116.44Z" id="elbun9r20v5pm" class="animable" style="transform-origin: 167.61px 121.05px;"></path><path d="M179.76,118.3s-6.49,2.33-6.92,9.22A76.71,76.71,0,0,1,179.76,118.3Z" id="elikg7t1q4i79" class="animable" style="transform-origin: 176.3px 122.91px;"></path><path d="M188.16,122.11s-6.66,1.79-7.65,8.62A77.33,77.33,0,0,1,188.16,122.11Z" id="el7fhekej67y" class="animable" style="transform-origin: 184.335px 126.42px;"></path><path d="M196.29,127.16s-6.66,1.79-7.65,8.62A77.33,77.33,0,0,1,196.29,127.16Z" id="el87enqghmqyq" class="animable" style="transform-origin: 192.465px 131.47px;"></path><path d="M203.48,133.91s-6.67,1.79-7.65,8.62A75.32,75.32,0,0,1,203.48,133.91Z" id="el9e8y4ge4krm" class="animable" style="transform-origin: 199.655px 138.22px;"></path></g></g><g id="elreu7fpgkaxj"><g style="opacity: 0.1; transform-origin: 180.853px 135.807px;" class="animable"><path d="M208.41,147.51a.5.5,0,0,1-.66.26.5.5,0,1,1,.4-.91A.5.5,0,0,1,208.41,147.51Z" id="elbijfpigwws" class="animable" style="transform-origin: 207.924px 147.303px;"></path><path d="M206.88,148.52a.86.86,0,1,1-.45-1.13A.86.86,0,0,1,206.88,148.52Z" id="el9louvgf5v7e" class="animable" style="transform-origin: 206.09px 148.18px;"></path><path d="M208.52,149.53a.67.67,0,0,1-1.23-.53.67.67,0,1,1,1.23.53Z" id="elc4xrc58lwc8" class="animable" style="transform-origin: 207.913px 149.245px;"></path><path d="M154.41,122.64a.67.67,0,1,1-1.23-.54.69.69,0,0,1,.89-.35A.67.67,0,0,1,154.41,122.64Z" id="eltde3kktgg5g" class="animable" style="transform-origin: 153.796px 122.37px;"></path></g></g><path d="M129.06,112.1c6-2.09,12.26,1.83,21.81-5.3l-1.5-3.43c-9.71,7.66-16,3.61-22,5.7s-9.14,6.89-12.66,8-9.56-.08-16.24,2.38a27.55,27.55,0,0,0-11.1,8.3l1.15,2.87a28.09,28.09,0,0,1,10.88-7.88c6.85-2.51,13-1.3,16.65-2.43S123,114.23,129.06,112.1Z" style="fill: rgb(255, 199, 39); transform-origin: 119.12px 116.995px;" id="elnidpekzp9ha" class="animable"></path><g id="eldvwbbx90tx"><path d="M129.06,112.1c6-2.09,12.26,1.83,21.81-5.3l-1.5-3.43c-9.71,7.66-16,3.61-22,5.7s-9.14,6.89-12.66,8-9.56-.08-16.24,2.38a27.55,27.55,0,0,0-11.1,8.3l1.15,2.87a28.09,28.09,0,0,1,10.88-7.88c6.85-2.51,13-1.3,16.65-2.43S123,114.23,129.06,112.1Z" style="fill: rgb(255, 255, 255); opacity: 0.6; transform-origin: 119.12px 116.995px;" class="animable"></path></g><path d="M90,134.26a27.72,27.72,0,0,1,10.63-7.61c6.85-2.51,13-1.3,16.66-2.43s6.86-6.07,13-8.2,12.4,1.92,22.16-5.58l-1.59-3.64c-9.55,7.13-15.85,3.21-21.81,5.3s-9.37,7.07-13,8.2-9.8-.08-16.65,2.43a28.09,28.09,0,0,0-10.88,7.88Z" style="fill: rgb(255, 199, 39); transform-origin: 120.485px 120.53px;" id="elrgr8hyks7wj" class="animable"></path><path d="M131.94,118.91c6-2.08,12.26,1.83,21.81-5.3l-1.5-3.43c-9.7,7.67-16,3.62-21.95,5.7s-9.15,6.9-12.66,8-9.56-.08-16.25,2.37a30.34,30.34,0,0,0-11.35,8l1.41,3.17a27.85,27.85,0,0,1,10.87-7.89c6.85-2.51,13.05-1.29,16.65-2.42S125.83,121.05,131.94,118.91Z" style="fill: rgb(255, 199, 39); transform-origin: 121.895px 123.8px;" id="elxvkny6cq0nl" class="animable"></path><g id="eltou84mough"><path d="M131.94,118.91c6-2.08,12.26,1.83,21.81-5.3l-1.5-3.43c-9.7,7.67-16,3.62-21.95,5.7s-9.15,6.9-12.66,8-9.56-.08-16.25,2.37a30.34,30.34,0,0,0-11.35,8l1.41,3.17a27.85,27.85,0,0,1,10.87-7.89c6.85-2.51,13.05-1.29,16.65-2.42S125.83,121.05,131.94,118.91Z" style="fill: rgb(255, 255, 255); opacity: 0.6; transform-origin: 121.895px 123.8px;" class="animable"></path></g><path d="M92.92,141.08a27.72,27.72,0,0,1,10.63-7.62c6.86-2.5,13-1.29,16.66-2.42s6.86-6.08,13-8.2,12.4,1.92,22.16-5.59l-1.59-3.64c-9.55,7.13-15.85,3.22-21.81,5.3s-9.37,7.07-13,8.21-9.8-.09-16.65,2.42a27.85,27.85,0,0,0-10.87,7.89Z" style="fill: rgb(255, 199, 39); transform-origin: 123.41px 127.345px;" id="el0ohsmudzjo7" class="animable"></path><path d="M117,100.3c-5.53,3-6.83,10.34-18.52,12.67l-1.55-3.41c12.19-2.09,13.38-9.47,18.91-12.51s11.24-2.2,14.41-4.07,6.34-7.17,12.63-10.5a27.66,27.66,0,0,1,13.59-2.71l1.37,2.79a28,28,0,0,0-13.13,2.81c-6.45,3.42-9.69,8.84-12.94,10.77S122.68,97.18,117,100.3Z" style="fill: rgb(255, 199, 39); transform-origin: 127.385px 96.348px;" id="elgc1iaa2f084" class="animable"></path><path d="M159.58,86.09a27.8,27.8,0,0,0-12.77,2.82c-6.45,3.42-9.69,8.84-12.94,10.76s-9.11,1-14.77,4.17-6.86,10.51-19,12.75L98.49,113c11.69-2.33,13-9.63,18.52-12.67s11.52-2.24,14.77-4.16,6.49-7.35,12.94-10.77a28,28,0,0,1,13.13-2.81Z" style="fill: rgb(255, 199, 39); transform-origin: 129.035px 99.5831px;" id="elxjg0ohtuf0n" class="animable"></path><g id="elgpjlogjsevt"><path d="M159.58,86.09a27.8,27.8,0,0,0-12.77,2.82c-6.45,3.42-9.69,8.84-12.94,10.76s-9.11,1-14.77,4.17-6.86,10.51-19,12.75L98.49,113c11.69-2.33,13-9.63,18.52-12.67s11.52-2.24,14.77-4.16,6.49-7.35,12.94-10.77a28,28,0,0,1,13.13-2.81Z" style="fill: rgb(255, 255, 255); opacity: 0.6; transform-origin: 129.035px 99.5831px;" class="animable"></path></g><path d="M120.15,107c-5.53,3-6.83,10.34-18.52,12.67l-1.55-3.41c12.19-2.09,13.38-9.48,18.92-12.51s11.24-2.2,14.41-4.07,6.33-7.17,12.62-10.5a30.5,30.5,0,0,1,13.55-3.09L161,89.25a28,28,0,0,0-13.13,2.82c-6.45,3.41-9.69,8.84-12.94,10.77S125.82,103.88,120.15,107Z" style="fill: rgb(255, 199, 39); transform-origin: 130.54px 102.88px;" id="elr6r4jhkt7ck" class="animable"></path><path d="M162.72,92.79A27.7,27.7,0,0,0,150,95.61c-6.45,3.42-9.69,8.84-12.94,10.76s-9.1,1-14.77,4.17-6.86,10.51-19,12.75l-1.65-3.62c11.69-2.33,13-9.64,18.52-12.67s11.52-2.25,14.77-4.16,6.49-7.36,12.94-10.77A28,28,0,0,1,161,89.25Z" style="fill: rgb(255, 199, 39); transform-origin: 132.18px 106.263px;" id="elmuczoo9jcx" class="animable"></path><g id="elzph8y18y6in"><path d="M162.72,92.79A27.7,27.7,0,0,0,150,95.61c-6.45,3.42-9.69,8.84-12.94,10.76s-9.1,1-14.77,4.17-6.86,10.51-19,12.75l-1.65-3.62c11.69-2.33,13-9.64,18.52-12.67s11.52-2.25,14.77-4.16,6.49-7.36,12.94-10.77A28,28,0,0,1,161,89.25Z" style="fill: rgb(255, 255, 255); opacity: 0.6; transform-origin: 132.18px 106.263px;" class="animable"></path></g><g id="el9pl1th1pdeh"><g style="opacity: 0.1; transform-origin: 118.115px 122.85px;" class="animable"><circle cx="140.03" cy="110.18" r="0.56" id="elfxyucby967" class="animable" style="transform-origin: 140.03px 110.18px;"></circle><path d="M97.15,135.12a.56.56,0,1,1-.56-.56A.56.56,0,0,1,97.15,135.12Z" id="elwopsm11msi" class="animable" style="transform-origin: 96.59px 135.12px;"></path><path d="M97.15,122.87a.56.56,0,1,1-.56-.56A.56.56,0,0,1,97.15,122.87Z" id="elsxoab7w3ug" class="animable" style="transform-origin: 96.59px 122.87px;"></path><circle cx="139.24" cy="111.65" r="0.48" id="elh3ktohyaevf" class="animable" style="transform-origin: 139.24px 111.65px;"></circle><path d="M94.43,135.6a.47.47,0,0,1,.48-.48.48.48,0,0,1,.48.48.49.49,0,0,1-.48.48A.48.48,0,0,1,94.43,135.6Z" id="elhivoqd4fz84" class="animable" style="transform-origin: 94.91px 135.6px;"></path><path d="M140.38,111.65a.71.71,0,0,1,1.42,0,.71.71,0,1,1-1.42,0Z" id="eljvkroolc8y" class="animable" style="transform-origin: 141.09px 111.65px;"></path></g></g><g id="elyt0iyzoisqj"><g style="opacity: 0.1; transform-origin: 128.25px 97.7651px;" class="animable"><path d="M106.25,109.37a.56.56,0,1,1-.56-.56A.56.56,0,0,1,106.25,109.37Z" id="elj3odsmigllo" class="animable" style="transform-origin: 105.69px 109.37px;"></path><path d="M141.15,96.35a.56.56,0,1,1-.56-.56A.56.56,0,0,1,141.15,96.35Z" id="eli2z0xm409cg" class="animable" style="transform-origin: 140.59px 96.35px;"></path><path d="M104.5,111.55a.48.48,0,0,1,.48-.48.49.49,0,0,1,.48.48.48.48,0,0,1-.48.48A.47.47,0,0,1,104.5,111.55Z" id="el7jcbo2emgq5" class="animable" style="transform-origin: 104.98px 111.55px;"></path><path d="M151,84a.48.48,0,1,1,1,0,.48.48,0,1,1-1,0Z" id="elhjp7qcrjlzl" class="animable" style="transform-origin: 151.5px 84px;"></path><path d="M106.6,111.17a.72.72,0,1,1,.71.72A.71.71,0,0,1,106.6,111.17Z" id="elof5xvnntocq" class="animable" style="transform-origin: 107.32px 111.17px;"></path><path d="M150.15,85.37a.72.72,0,1,1,.72.72A.71.71,0,0,1,150.15,85.37Z" id="el14h44qnybytb" class="animable" style="transform-origin: 150.87px 85.37px;"></path></g></g><path d="M153.94,178a32.81,32.81,0,0,1-8.36,8.26c-12.61,9.26-27.17,9.31-37.47-.24h0a34.22,34.22,0,0,1-5.92-7.37,37.12,37.12,0,0,1-5.38-14.38c-.92-7.29,1.17-14.61,7.86-21.52l.19-.19c8.86-9,26.25-15.38,35.15-7.73s7.13,17,9.83,20.77C155.56,163.6,158.86,170.43,153.94,178Z" style="fill: rgb(255, 255, 255); transform-origin: 126.47px 162.307px;" id="el74l06alzkss" class="animable"></path><g id="elm2p4rjwml7"><circle cx="120.16" cy="156.87" r="13.74" style="fill: rgb(255, 199, 39); transform-origin: 120.16px 156.87px; transform: rotate(-22.3deg);" class="animable"></circle></g><g id="el465atccrhca"><circle cx="116.76" cy="153.03" r="6.29" style="fill: rgb(255, 255, 255); opacity: 0.3; transform-origin: 116.76px 153.03px;" class="animable"></circle></g><g id="el8rjolcdsfwf"><path d="M130.8,153a.82.82,0,1,1-.82-.82A.82.82,0,0,1,130.8,153Z" style="opacity: 0.1; transform-origin: 129.98px 153px;" class="animable"></path></g><g id="elq4i8a9vces"><path d="M130.26,155a.55.55,0,0,1-.55.54.54.54,0,0,1-.54-.54.55.55,0,0,1,.54-.55A.55.55,0,0,1,130.26,155Z" style="opacity: 0.1; transform-origin: 129.715px 154.995px;" class="animable"></path></g><g id="eliqv92qnkx1n"><path d="M112.13,164.45a.54.54,0,1,1-.54-.54A.54.54,0,0,1,112.13,164.45Z" style="opacity: 0.1; transform-origin: 111.59px 164.45px;" class="animable"></path></g><path d="M199.15,173.55c-4.29,21.27-23,19-30.78,20.8-6.06,1.37-15.75,1.1-22.06-3.59a15.46,15.46,0,0,1-3-2.94,14.5,14.5,0,0,1-1.35-2.13c-5.28-10.21-6.33-27.29,5.55-38a29.61,29.61,0,0,1,4.45-3.32,37.21,37.21,0,0,1,8.83-3.94C178.31,135,203.45,152.27,199.15,173.55Z" style="fill: rgb(255, 255, 255); transform-origin: 168.912px 167.246px;" id="el0cu1epwk4h68" class="animable"></path><g id="elfw0tc1zvt5j"><circle cx="174.95" cy="168.89" r="13.74" style="fill: rgb(255, 199, 39); transform-origin: 174.95px 168.89px; transform: rotate(-75.58deg);" class="animable"></circle></g><g id="elqo35ckwgj69"><path d="M176.68,163.76a6.29,6.29,0,1,1-8-3.81A6.3,6.3,0,0,1,176.68,163.76Z" style="fill: rgb(255, 255, 255); opacity: 0.3; transform-origin: 170.76px 165.887px;" class="animable"></path></g><g id="elykugo63165o"><path d="M168.39,177.44a.81.81,0,1,1-.89-.72A.81.81,0,0,1,168.39,177.44Z" style="opacity: 0.1; transform-origin: 167.585px 177.526px;" class="animable"></path></g><g id="el82q6galop4i"><path d="M184.87,169a.55.55,0,0,1-.48.6.55.55,0,0,1-.6-.49.55.55,0,0,1,.49-.59A.54.54,0,0,1,184.87,169Z" style="opacity: 0.1; transform-origin: 184.33px 169.06px;" class="animable"></path></g><g id="el6dekpcg0mea"><path d="M169.66,179.08a.55.55,0,0,1-.49.6.54.54,0,0,1-.11-1.08A.55.55,0,0,1,169.66,179.08Z" style="opacity: 0.1; transform-origin: 169.119px 179.14px;" class="animable"></path></g><path d="M159.45,179.16a35.6,35.6,0,0,1-9,8.94,41.91,41.91,0,0,1-4.09,2.66,15.46,15.46,0,0,1-3-2.94c.76-.49,1.52-1,2.27-1.56a32.81,32.81,0,0,0,8.36-8.26c4.92-7.57,1.62-14.4-4.11-22.41-1.23-1.72-1.52-4.57-2.32-7.91a29.61,29.61,0,0,1,4.45-3.32c1.32,4.47,1.47,8.39,3,10.6C161.19,163.62,164.75,171,159.45,179.16Z" style="fill: rgb(235, 235, 235); transform-origin: 152.694px 167.56px;" id="eldh5d7racs5s" class="animable"></path></g><g id="freepik--Character--inject-13" class="animable" style="transform-origin: 248.011px 273.832px;"><path d="M276.24,330.38S255.51,411.81,247.31,444H163.84c9.37-33,32.39-113.62,32.39-113.62Z" style="fill: rgb(55, 71, 79); transform-origin: 220.04px 387.19px;" id="elke85tfvfng" class="animable"></path><path d="M313.35,411.81s1.86,18.7,3.15,32.19H236.87c-.49-11.62-1.13-26.4-1.16-26.41l-.09,0-3.49-1.75-12.56-6.24-.52-.26-6.38-3.17c0-.05-.13-.59-.31-1.56-.45-2.33-1.35-7.11-2.48-13.16-1.4-7.49-3.15-16.93-4.84-26.12-3.18-17.21-6.15-33.56-6.22-34.62,0-.14,0-.23,0-.28v0l107.72,0S324.9,376.59,313.35,411.81Z" style="fill: rgb(55, 71, 79); transform-origin: 257.992px 387.215px;" id="elfy096x6e8lt" class="animable"></path><path d="M246,421.88c-3.68-2.55-7.64-4.69-11.53-6.89s-8-4.4-12.16-6.33c-8.09-3.77-16.63-6.49-25.14-9.13-.22-.06-.36.29-.15.38,8.2,3.52,16.14,7.55,24.3,11.17,4.1,1.82,8.23,3.56,12.34,5.37s8.11,3.86,12.25,5.59A.09.09,0,0,0,246,421.88Z" style="fill: rgb(38, 50, 56); transform-origin: 221.482px 410.787px;" id="elk7lh8hvudyh" class="animable"></path><path d="M223.55,381.76c-.1-4-.39-8-.59-12.05-.47-9.48-.83-19-1.71-28.47a.3.3,0,0,0-.59,0c-.12,7.34.16,14.69.31,22,.07,3.67.18,7.33.28,11a102.55,102.55,0,0,1,.07,10.52c-.19,2.64-.77,7.78-4.22,8.1-3.25.3-5-3.21-5.85-5.78-2.06-6.53-2.79-13.58-3.46-20.37-.39-4-1.65-20.39-1.43-24.45,0-.26-.39-.25-.41,0-.22,4.14-.45,20.79-.19,24.92.26,4,.59,7.93,1.19,11.86a42.89,42.89,0,0,0,2.55,10.49c1.19,2.78,2.62,5.24,5.74,5.85a6.72,6.72,0,0,0,1.16.12c0,.85.16,1.71.21,2.55.1,1.33.26,2.65.44,4a31.58,31.58,0,0,0,.81,3.84,14.3,14.3,0,0,0,1.35,3.67.21.21,0,0,0,.38-.11,17.92,17.92,0,0,0-.32-3.79c-.17-1.29-.36-2.59-.62-3.87s-.49-2.51-.75-3.77c-.18-.84-.29-1.71-.45-2.56a6.17,6.17,0,0,0,4.6-3.62C223.51,388.76,223.63,385.11,223.55,381.76Z" style="fill: rgb(38, 50, 56); transform-origin: 214.607px 375.321px;" id="el9rn5yc8rtdo" class="animable"></path><path d="M308,376.5c-5.75.4-11.43,1.14-17.2.46a30,30,0,0,1-15-5.88c-9.48-7.35-13.64-19.39-16.21-30.68a.2.2,0,0,0-.4.06c1.07,9.79,3.18,19.92,9.5,27.8a30.47,30.47,0,0,0,10.09,8.31,29.58,29.58,0,0,0,13.33,2.75,64.28,64.28,0,0,0,16-2.16A.33.33,0,0,0,308,376.5Z" style="fill: rgb(38, 50, 56); transform-origin: 283.789px 359.78px;" id="el9ukczl5quat" class="animable"></path><path d="M237.83,444H236.4q-.36-5.82-.56-11.65c-.08-2.58-.1-5.16-.13-7.73,0-2.36-.13-4.73-.09-7.08v-.2c0-.16,0-.31,0-.46a.13.13,0,0,1,.26,0c0,.21.05.42.07.63.32,2.71.48,5.46.72,8.18.45,5.19.75,10.38,1,15.59C237.75,442.18,237.79,443.09,237.83,444Z" style="fill: rgb(38, 50, 56); transform-origin: 236.721px 430.375px;" id="elte0corw7xxg" class="animable"></path><path d="M206.14,172.09a5.32,5.32,0,0,0,3.91,9.59,5.71,5.71,0,0,0,.06,2.25,5.87,5.87,0,0,0,6.5,4.49,5,5,0,0,0,.08,1.89,5.33,5.33,0,0,0,9.39,2.1,5.32,5.32,0,0,0,6.28,3.55,5.25,5.25,0,0,0,2-1c0,.15.06.32.09.47a5.34,5.34,0,0,0,10.12.84,5.32,5.32,0,0,0,9.94-.77,5.92,5.92,0,0,0,3.87.41,5.73,5.73,0,0,0,3.67-2.67,5.85,5.85,0,0,0,8.95-4.66,5.48,5.48,0,0,0,2.09-.06,5.33,5.33,0,0,0,4.11-5.7,5.76,5.76,0,0,0,2.58,0,5.87,5.87,0,0,0,4.41-7,5.6,5.6,0,0,0-.75-1.77,3.39,3.39,0,0,0,.93-.12A5.31,5.31,0,0,0,287,165a5.85,5.85,0,0,0,2.31-9.69,5.9,5.9,0,0,0,2.49-6.24,5.82,5.82,0,0,0-3.27-4,5.3,5.3,0,0,0-1.82-7.68,5.86,5.86,0,0,0-4-9.59,5.39,5.39,0,0,0,0-2.56,5.32,5.32,0,0,0-5.7-4.1,5.5,5.5,0,0,0,0-2.52,5.86,5.86,0,0,0-7-4.39,5,5,0,0,0-1.28.47,4.45,4.45,0,0,0-.14-.94,5.86,5.86,0,0,0-7-4.39,4.92,4.92,0,0,0-1.37.52,5.21,5.21,0,0,0-.13-1.66,5.87,5.87,0,0,0-10.79-1.66,5.8,5.8,0,0,0-5.53-1.66,5.87,5.87,0,0,0-3.59,2.5,5.33,5.33,0,0,0-9.74.82,5.32,5.32,0,0,0-8.51,3.72,5.79,5.79,0,0,0-4.66-.91,5.9,5.9,0,0,0-4.57,5.87,5.29,5.29,0,0,0-5.93,6.47,5,5,0,0,0,.77,1.75c-.12,0-.23,0-.35.06a5.89,5.89,0,0,0-4.4,7.06,5.48,5.48,0,0,0,.62,1.58,4.92,4.92,0,0,0-1.42.13,5.32,5.32,0,0,0-1.58,9.72,5.32,5.32,0,0,0,.69,8.47,5.85,5.85,0,0,0,2.26,10.89,5.27,5.27,0,0,0-1.46,5A5.36,5.36,0,0,0,206.14,172.09Z" style="fill: rgb(38, 50, 56); transform-origin: 244.909px 151.603px;" id="elz4gwlizj4m" class="animable"></path><path d="M222.22,217.42c-40.24,36.26-77.54,76-80.46,96.24-4,28.07,13.22,35.85,21,35.93,21.05.2,59.32-85.13,72.63-117.72C248.27,200.24,231.05,209.46,222.22,217.42Z" style="fill: rgb(255, 196, 192); transform-origin: 190.588px 279.661px;" id="el4s6ohwik8xb" class="animable"></path><path d="M161.49,275.45l44.73,24.32s27.82-51.38,34.23-75.19-3.16-23.13-24.22-4.61S161.49,275.45,161.49,275.45Z" style="fill: rgb(199, 199, 199); transform-origin: 201.953px 253.068px;" id="el9y8fri7et2c" class="animable"></path><path d="M161.49,275.45l44.73,24.32s27.82-51.38,34.23-75.19-3.16-23.13-24.22-4.61S161.49,275.45,161.49,275.45Z" style="fill: rgb(255, 199, 39); transform-origin: 201.953px 253.068px;" id="el1iyeezb5clu" class="animable"></path><g id="elpuic5cqfsk8"><path d="M240.44,224.57c-6.4,23.82-34.22,75.21-34.22,75.21l-40.73-22.16,75-70.5C243,209,243.11,214.69,240.44,224.57Z" style="opacity: 0.1; transform-origin: 203.949px 253.45px;" class="animable"></path></g><path d="M170.7,268.59c17.25,11.67,34,19.26,37.31,21.19.16.09.29-.18.13-.26-3.39-1.72-21.75-13.15-37.31-21.21C170.65,268.22,170.53,268.48,170.7,268.59Z" style="fill: rgb(38, 50, 56); transform-origin: 189.416px 279.045px;" id="elg1kblqzzxy" class="animable"></path><path d="M195.06,333.84l5.2-33.27s-12.27-21.41-5.15-36.78c3.59-7.78,28.22-45.82,41.48-55.45,12.45-9,31.44-.14,37.24,7.71,16.67,22.6,25.3,44,34.61,117.79Z" style="fill: rgb(255, 199, 39); transform-origin: 250.664px 269.196px;" id="el16lyufgowwc" class="animable"></path><g id="el2p3r80arhq5"><path d="M268.15,210.82H233.59c.77-.71,1.52-1.34,2.23-1.9h29.23A35.46,35.46,0,0,1,268.15,210.82Zm5.68,5.23a1.58,1.58,0,0,0-.12-.15H228.58c-.57.61-1.13,1.24-1.7,1.9H275.1C274.68,217.22,274.26,216.63,273.83,216.05Zm4.79,6.84h-56l-1.51,1.9h58.74C279.45,224.15,279,223.52,278.62,222.89Zm4.29,7H217.23c-.48.63-.95,1.26-1.41,1.9H284C283.63,231.13,283.27,230.49,282.91,229.87Zm3.67,7H212.15c-.45.63-.89,1.27-1.33,1.9h76.65C287.18,238.12,286.88,237.48,286.58,236.86Zm3.09,7H207.34c-.44.64-.86,1.28-1.28,1.9h84.36Zm2.61,7H202.75l-1.21,1.9h91.38C292.71,252.08,292.5,251.44,292.28,250.82Zm2.24,7H198.41c-.4.67-.77,1.31-1.11,1.9h97.78C294.89,259.06,294.71,258.43,294.52,257.81Zm2,7H194.68a19.44,19.44,0,0,0-.66,1.9H297C296.79,266.05,296.63,265.41,296.47,264.79Zm1.71,7H193c-.06.63-.1,1.27-.12,1.9H298.62C298.48,273,298.33,272.41,298.18,271.78Zm1.54,7H193.11c.07.64.15,1.27.24,1.9H300.11C300,280,299.85,279.38,299.72,278.76Zm1.4,7H194.41c.16.65.34,1.28.52,1.9H301.48Zm1.27,7H196.66c.25.67.51,1.3.76,1.9H302.73C302.62,294,302.5,293.36,302.39,292.73Zm1.49,8.89-.3-1.9H199.8c.29.55.46.85.46.85l-.16,1.05Zm.8,5.08H199.3l-.3,1.9H305C304.88,308,304.78,307.33,304.68,306.7Zm1,7H198.21l-.3,1.9H306C305.91,315,305.81,314.32,305.72,313.69Zm1,7H197.12l-.3,1.9H307C306.88,321.93,306.79,321.3,306.71,320.67Zm.93,7H196l-.3,1.9H307.89C307.81,328.92,307.73,328.29,307.64,327.66Z" style="opacity: 0.1; transform-origin: 250.385px 269.34px;" class="animable"></path></g><path d="M221.94,294.8a115.32,115.32,0,0,1,16.9,2.93c2.75.73,5.45,1.59,8.14,2.5,1.34.45,2.69.86,4.05,1.27a18.51,18.51,0,0,0,4.36.86c.13,0,.12.2,0,.2a31,31,0,0,1-4.2-.11,32.5,32.5,0,0,1-4-.79c-2.79-.72-5.55-1.56-8.34-2.3-5.63-1.5-11.25-3-17-4.09C221.6,295.22,221.67,294.77,221.94,294.8Z" style="fill: rgb(38, 50, 56); transform-origin: 238.59px 298.693px;" id="el868cih1dpy3" class="animable"></path><path d="M207.8,299.73a123.8,123.8,0,0,1,14.15-.56c2.36.05,4.7.24,7.05.48,1.13.12,2.25.26,3.36.41s2.44.5,3.67.65c.13,0,.13.22,0,.21-1.17-.11-2.35,0-3.52-.06l-3.53-.12c-2.36-.08-4.71-.13-7.06-.23-4.72-.2-9.41-.36-14.13-.4C207.54,300.11,207.56,299.75,207.8,299.73Z" style="fill: rgb(38, 50, 56); transform-origin: 221.869px 300.036px;" id="elb9dy26xgeaa" class="animable"></path><path d="M276.81,214.84c38.15,29.29,77.93,79,78.53,107.71.59,28.34-15.34,25.52-18,24.68-28.34-8.82-62.52-87.46-75.15-119.48C249.62,196,267.38,207.59,276.81,214.84Z" style="fill: rgb(255, 196, 192); transform-origin: 306.6px 277.193px;" id="elprz2f2xjh2m" class="animable"></path><path d="M338.11,272l-44.3,25.12s-28.73-50.88-35.56-74.57,2.75-23.18,24.13-5S338.11,272,338.11,272Z" style="fill: rgb(255, 199, 39); transform-origin: 297.092px 250.712px;" id="elj5hoc2yrgvk" class="animable"></path><path d="M328.78,265.28c-17,12-33.62,19.86-36.94,21.85-.15.09-.29-.17-.12-.26,3.35-1.78,21.5-13.53,36.92-21.87C328.82,264.9,328.94,265.17,328.78,265.28Z" style="fill: rgb(38, 50, 56); transform-origin: 310.249px 276.063px;" id="el0c101o3iya69" class="animable"></path><path d="M296.66,295.36a22.81,22.81,0,0,0-2.67,1.19c-4.26-8.47-3.48-6.53-7.82-14.95l-6.37-12.39c-2.2-4.3-4.18-8.77-6.61-12.94a.11.11,0,1,0-.19.09c1.41,4.08,3.32,8,5.13,11.94-.4-.61-.78-1.23-1.22-1.82-1-1.31-1.93-2.63-2.8-4-.14-.22-.49,0-.36.17.83,1.33,1.57,2.69,2.29,4.07s1.54,2.71,2.36,4.05,1.67,2.5,2.55,3.73l.32.45c1.16,2.45,2.29,4.92,3.5,7.36a116.29,116.29,0,0,0,8.8,15.16,23.75,23.75,0,0,0,3.21-1.86C296.9,295.51,296.78,295.35,296.66,295.36Z" style="fill: rgb(38, 50, 56); transform-origin: 284.9px 276.823px;" id="el61sxjsu16rq" class="animable"></path><path d="M164.66,348.59c13.13-1.92,20.57-26.32,35.15-65.15,2.56-6.82-31.35-45.84-35.95-39.57-5.8,7.91-21.17,51.76-22.7,63.68C138.14,331,149.33,350.84,164.66,348.59Z" style="fill: rgb(255, 196, 192); transform-origin: 170.307px 295.978px;" id="el7pqk79ttsiw" class="animable"></path><path d="M184.86,322.74c1.15-3.32,2.4-6.6,3.64-9.87s2.54-6.54,3.81-9.81l3.87-9.76q1-2.44,1.9-4.9c.64-1.63,1.25-3.27,1.73-5a68.4,68.4,0,0,1-2.91,10.12c-1.13,3.33-2.39,6.6-3.66,9.87s-2.62,6.51-4,9.72S186.4,319.58,184.86,322.74Z" style="fill: rgb(38, 50, 56); transform-origin: 192.335px 303.07px;" id="elvti77u5n8md" class="animable"></path><path d="M153.16,272c1.84-13.33,5.6-31.92,10.36-35.82,5-4.09,23.16-17.76,28.4-19.57s28.62-10.72,32.92-8.23c3.43,2-.64,11-11.76,15.36-9.78,3.81-14.81,7.36-17.61,8.57s-9.7,10.47-7.83,14.55c1.1,2.41,8.11,5.24,12.46,3.27s5.44-10.6,10.41-14.67,13.76-3.57,14.27-1.2-2.39,3.48-6.88,11.54c-2.89,5.18-3.09,17.61-9.64,26.53-3.29,4.48-9,16.4-9,16.4Z" style="fill: rgb(255, 196, 192); transform-origin: 189.591px 248.337px;" id="elz36rh0rsrak" class="animable"></path><path d="M215.16,231.82a8.67,8.67,0,0,0,4.35-2,3.55,3.55,0,0,0,1-1.78,3.5,3.5,0,0,0,0-1.12,1.63,1.63,0,0,0-.43-1.06c-.08-.06.05-.17.09-.08a4.17,4.17,0,0,0,.41.53,2.92,2.92,0,0,1,.25.5,2.87,2.87,0,0,1,.18,1.09,3.52,3.52,0,0,1-.86,2.21,6,6,0,0,1-5,1.81A.07.07,0,0,1,215.16,231.82Z" style="fill: rgb(38, 50, 56); transform-origin: 218.072px 228.852px;" id="elzu040gzyf9n" class="animable"></path><path d="M163.52,236.21c4.24-6.65,15.07-18.65,25.81-22.78,7.25-2.79,32.24,9.36,31.51,14.13s-5,4.8-11.3,4.05c-2.31-.27-14.48-4.64-16.55-2.08-3,3.67-6.76,16.22-6.76,16.22Z" style="fill: rgb(255, 196, 192); transform-origin: 192.188px 229.384px;" id="ele57k7dak8q5" class="animable"></path><path d="M220.23,225.7c-3.09-5.11-9.88-7.83-16.63-10-.1,0-.16.12-.06.16,1.72.55,12.72,5.6,16.61,9.9C220.19,225.83,220.26,225.75,220.23,225.7Z" style="fill: rgb(38, 50, 56); transform-origin: 211.863px 220.744px;" id="el2hn4xxmgm47" class="animable"></path><path d="M163.52,236.21c4.24-6.65,15.07-18.65,25.81-22.78,7.25-2.79,27,12.76,26.3,17.54s-6.86,5.16-13.63,2.8c-2.19-.76-9.54-5.92-11.61-3.37-3,3.68-10.24,12.79-10.24,12.79Z" style="fill: rgb(255, 196, 192); transform-origin: 189.584px 228.144px;" id="el4gdqimqmrxd" class="animable"></path><path d="M184.33,237.55c.68-1.05.92-1.42,1.62-2.46s1.4-2.06,2.17-3a9.49,9.49,0,0,1,2.24-2.36,4.75,4.75,0,0,1,3-.59c2.35.21,4.47,1.7,6.46,2.85,2.23,1.27,6.85,3.34,10.38,3a6.8,6.8,0,0,0,2.79-.76,4.3,4.3,0,0,0,1.67-1.33c1.53-2.6-.39-5.57-2.35-7.67-3.65-3.91-8.56-6.75-13.32-9.08-1.17-.58-2.35-1.12-3.54-1.66a10.5,10.5,0,0,0-4.28-1.22c-2.46,0-6.48,2.48-7.73,3.23-.1.06-.17-.09-.08-.15,1.51-.94,5.25-4,9.22-3.81a12.53,12.53,0,0,1,4.12,1.38c1.38.6,2.75,1.24,4.09,1.91a56.81,56.81,0,0,1,7.56,4.46,23.54,23.54,0,0,1,6.18,5.84,6.92,6.92,0,0,1,.44,7.07c-1.09,1.8-3.4,2.23-4.46,2.37a11.24,11.24,0,0,1-3.12,0,49.79,49.79,0,0,1-6.8-2c-2.15-.85-4.08-2.3-6.3-3a4.09,4.09,0,0,0-3.2.21,10.75,10.75,0,0,0-2.39,2.18,33.54,33.54,0,0,0-4,4.75C184.38,238.13,184.05,238,184.33,237.55Z" style="fill: rgb(38, 50, 56); transform-origin: 199.528px 225.248px;" id="elopvdvl2alah" class="animable"></path><path d="M160.38,242c1.56-3.16,4.17-16.21,6.69-20.21s14-17.84,19.37-17.24c6.74.74-.28,12.91-3.81,17.92S179.71,236,179.71,236Z" style="fill: rgb(255, 196, 192); transform-origin: 174.818px 223.266px;" id="elfn6ie3y2jjc" class="animable"></path><path d="M187.55,214.17c-1.25,1.59-2.36,3.34-3.45,5.05a39.31,39.31,0,0,0-3,5,17.7,17.7,0,0,0-1.31,5.56c-.09.94-.11,1.87-.12,2.82s.09,2.06.06,3.09c0,.11.17.12.17,0a44.08,44.08,0,0,1,.73-5.59,23.44,23.44,0,0,1,1.69-5.57c1.57-3.54,3.88-6.69,5.48-10.21C187.85,214.15,187.64,214.06,187.55,214.17Z" style="fill: rgb(38, 50, 56); transform-origin: 183.738px 224.949px;" id="elyv8juxqjzfk" class="animable"></path><path d="M179.79,237.42a16.59,16.59,0,0,0,1,4.62,36,36,0,0,0,1.83,4.35,44.79,44.79,0,0,0,2.29,4.13c.81,1.34,1.79,2.55,2.75,3.84a30.38,30.38,0,0,1,4.78,8.35,27.31,27.31,0,0,1,1.55,9.45,34.07,34.07,0,0,0-2.24-9.18,35.19,35.19,0,0,0-4.88-8,40.11,40.11,0,0,1-2.78-3.93,34.69,34.69,0,0,1-2.2-4.29C180.68,243.79,179.56,240.64,179.79,237.42Z" style="fill: rgb(38, 50, 56); transform-origin: 186.876px 254.79px;" id="elxr7mlanwcko" class="animable"></path><path d="M231.87,225.51l18.47,55.12c.73,1.6,0,3-1.62,3.13l-29,2.22a4.69,4.69,0,0,1-4.25-2.68L197,228.18c-.72-1.6,0-3,1.62-3.13l29-2.22A4.7,4.7,0,0,1,231.87,225.51Z" style="fill: rgb(55, 71, 79); transform-origin: 223.672px 254.405px;" id="elxyv4adhwhdm" class="animable"></path><path d="M228.42,225.74l18.47,55.12c.73,1.6,0,3-1.61,3.13l-29,2.23a4.72,4.72,0,0,1-4.25-2.68l-18.47-55.12c-.73-1.61,0-3,1.62-3.13l29-2.23A4.72,4.72,0,0,1,228.42,225.74Z" style="fill: rgb(69, 90, 100); transform-origin: 220.225px 254.64px;" id="elo68xzzzkio" class="animable"></path><path d="M220.67,228.92a2.47,2.47,0,1,0,2.21-2.7A2.47,2.47,0,0,0,220.67,228.92Z" style="fill: rgb(38, 50, 56); transform-origin: 223.128px 228.678px;" id="elc4bv7drp07" class="animable"></path><path d="M343.35,347.52c-12.66,1.89-28.56-7.78-69.86-37.23-5.71-4.07,12.2-52.14,18.52-48.1,8,5.09,37.79,26.55,39.77,28.39C348.5,306.14,351.93,346.25,343.35,347.52Z" style="fill: rgb(255, 196, 192); transform-origin: 310.136px 304.848px;" id="elj15s7pzohda" class="animable"></path><path d="M306.8,276.5S295,260.26,286.09,253.66c-11.87-8.85-25.76-11.59-31.65-12.39-12.3-1.68-43.19,2.79-43.45,11.91-.25,8.25,31.1,2.1,31.1,2.1s-33,1-31.46,11,37.51.78,37.51.78-33.87,1.79-30.65,11.85C219.92,286.5,253,280,253,280s-29.1,1.74-26.94,9.66c2.39,8.75,33.27,4.66,33.27,4.66,8.89,19.21,21,24.72,30.05,27.62C291.54,322.63,306.8,276.5,306.8,276.5Z" style="fill: rgb(255, 196, 192); transform-origin: 258.689px 281.435px;" id="el95yef1x9sv" class="animable"></path><path d="M253.47,254.2c-3.88,0-7.8-.07-11.67.25s-7.73.78-11.55,1.46c-9.37,1.67-15,4.18-14.61,4.07,8.59-2.78,22.41-4.15,26.28-4.47s7.71-.84,11.57-1.17C253.59,254.34,253.57,254.2,253.47,254.2Z" style="fill: rgb(38, 50, 56); transform-origin: 234.588px 257.089px;" id="el82jr3oy0uct" class="animable"></path><path d="M254.89,268.14c-4.95.19-9.88.19-14.83.6s-9.56,1.21-14.44,1.95c-.38.06-.22.25.16.2,4.91-.54,9.49-.67,14.4-1.15s9.82-1.17,14.73-1.48C255,268.26,255,268.14,254.89,268.14Z" style="fill: rgb(38, 50, 56); transform-origin: 240.189px 269.519px;" id="elchu0rdk1u3u" class="animable"></path><path d="M258.26,279.9c-7.58-.11-15.18,1.19-22.6,2.64-.37.07-.15.28.23.23,7.5-1,13.38-1.87,22.37-2.61C258.4,280.15,258.42,279.9,258.26,279.9Z" style="fill: rgb(38, 50, 56); transform-origin: 246.921px 281.336px;" id="elc0wemfs3al" class="animable"></path><path d="M320.38,282.1a117.08,117.08,0,0,1,9.51,6.92c1.54,1.22,3,2.53,4.44,3.9a24,24,0,0,1,3.8,4.6,61,61,0,0,1,5.09,10.67,53,53,0,0,1,2.94,11.39,54.12,54.12,0,0,0-1.62-5.63q-.92-2.77-2-5.48a67.46,67.46,0,0,0-5.21-10.41c-2-3.32-5-5.84-7.89-8.45q-2.2-1.94-4.48-3.79C323.43,284.56,321.9,283.34,320.38,282.1Z" style="fill: rgb(38, 50, 56); transform-origin: 333.27px 300.84px;" id="el6laxp91vghs" class="animable"></path><path d="M261.74,209.24c-.28,2.17-9.05,17.13-20.9,16.54-6.89-.34-2.35-14.12-2.35-14.12L232.34,193l22.5-17.59S261.85,208.32,261.74,209.24Z" style="fill: rgb(255, 196, 192); transform-origin: 247.041px 200.603px;" id="elcc1y4dky54c" class="animable"></path><path d="M257.41,187.68a37.55,37.55,0,0,1-19.26,22.94L232.33,193l22.51-17.6Z" style="fill: rgb(38, 50, 56); transform-origin: 244.87px 193.01px;" id="elgii10agbdiw" class="animable"></path><path d="M205.28,166.89c-.31,32.26,19,36.1,25.93,36.15,6.32.06,27.83-.56,31.47-32.61S251.43,128,237,127.14,205.6,134.63,205.28,166.89Z" style="fill: rgb(255, 196, 192); transform-origin: 234.256px 165.062px;" id="elkxad8t4z0j" class="animable"></path><path d="M214,164.37a20.26,20.26,0,0,0,2.14-.65,3.57,3.57,0,0,0,2-1.08,1.16,1.16,0,0,0-.12-1.4,2.87,2.87,0,0,0-2.86-.41,4.19,4.19,0,0,0-2.48,1.71A1.22,1.22,0,0,0,214,164.37Z" style="fill: rgb(38, 50, 56); transform-origin: 215.408px 162.512px;" id="el9yb3ohpgov" class="animable"></path><path d="M236.06,162.38a20.49,20.49,0,0,1-2.21-.26,3.62,3.62,0,0,1-2.21-.7,1.16,1.16,0,0,1-.12-1.4,2.86,2.86,0,0,1,2.74-.91,4.17,4.17,0,0,1,2.74,1.24A1.22,1.22,0,0,1,236.06,162.38Z" style="fill: rgb(38, 50, 56); transform-origin: 234.324px 160.714px;" id="elph5w4hotqo" class="animable"></path><path d="M232.19,170.91c0-.08.18.1.18.19.08,2.19.53,4.7,2.57,5.29.06,0,.06.13,0,.13C232.48,176.34,231.91,173,232.19,170.91Z" style="fill: rgb(38, 50, 56); transform-origin: 233.555px 173.705px;" id="elj7aszmbbbnc" class="animable"></path><path d="M234,168.49c3.51-.49,4.25,6.56,1,7S231.06,168.91,234,168.49Z" style="fill: rgb(38, 50, 56); transform-origin: 234.606px 171.988px;" id="el911itkvi8wm" class="animable"></path><path d="M235.42,168.72c.66.34,1.34,1,2.09,1s1.44-.81,1.93-1.58c.05-.08.11,0,.13.07.16,1.35-.22,2.79-1.64,3.14s-2.38-.77-2.86-2.09C235,169,235.16,168.59,235.42,168.72Z" style="fill: rgb(38, 50, 56); transform-origin: 237.329px 169.761px;" id="elr7pmoh9d2vk" class="animable"></path><path d="M219,172c0-.08-.16.13-.15.22.32,2.17.31,4.72-1.58,5.66-.06,0,0,.14,0,.12C219.67,177.39,219.64,174,219,172Z" style="fill: rgb(38, 50, 56); transform-origin: 218.307px 174.992px;" id="el5ltfbyk5ozw" class="animable"></path><path d="M216.78,169.94c-3.54.13-3,7.21.26,7.09S219.75,169.83,216.78,169.94Z" style="fill: rgb(38, 50, 56); transform-origin: 216.804px 173.485px;" id="elitiq10frrn" class="animable"></path><path d="M215.34,170.52c-.53.41-1,1.14-1.7,1.23s-1.4-.62-1.95-1.31c-.05-.08-.1,0-.1.08.06,1.36.61,2.73,1.93,2.9s2-1.08,2.21-2.45C215.77,170.72,215.55,170.35,215.34,170.52Z" style="fill: rgb(38, 50, 56); transform-origin: 213.662px 171.921px;" id="eljd0x3gkplle" class="animable"></path><path d="M232.53,188.45c-.44.59-.86,1.37-1.63,1.55a5.83,5.83,0,0,1-2.42-.19c-.07,0-.13.07-.08.12a3,3,0,0,0,2.94.77,2.37,2.37,0,0,0,1.42-2.18C232.77,188.39,232.6,188.37,232.53,188.45Z" style="fill: rgb(38, 50, 56); transform-origin: 230.571px 189.608px;" id="elgnsyn9ztryo" class="animable"></path><path d="M222.65,181.4s-.15,3.31,0,4.85c0,.14.4.18.92.16,0,0,0,0,.06,0a7.34,7.34,0,0,0,6.86-3.4c.1-.16-.11-.3-.25-.19a11,11,0,0,1-6.51,2.54c-.15-.41.44-5.66.2-5.65a13,13,0,0,0-3.43,1.12c.11-6.91,1.32-13.74,1.32-20.61a.21.21,0,0,0-.41-.06c-1.78,7.06-2.07,15-2.37,22.13C219,183.17,222.05,181.72,222.65,181.4Z" style="fill: rgb(38, 50, 56); transform-origin: 224.778px 173.226px;" id="el87l60uuvzb3" class="animable"></path><path d="M224.52,185.49a8,8,0,0,0,3.29,2.29,3.49,3.49,0,0,0,2.17,0c1.55-.49,1.51-1.92,1.16-3.14a8.33,8.33,0,0,0-.79-1.84A10.33,10.33,0,0,1,224.52,185.49Z" style="fill: rgb(38, 50, 56); transform-origin: 227.93px 185.376px;" id="el8n1o5jk2s2m" class="animable"></path><path d="M227.81,187.78a3.49,3.49,0,0,0,2.17,0c1.55-.49,1.51-1.92,1.16-3.14C229.47,184.92,227.87,186.14,227.81,187.78Z" style="fill: rgb(255, 154, 187); transform-origin: 229.575px 186.296px;" id="elcn6xn49rfyu" class="animable"></path><path d="M261.09,170.33c-5.13,1.11-7.62-10.73-7.62-10.73s-10.52,1.47-16.05-13.19a23.44,23.44,0,0,0,6.36,11.87s-19,1.71-28.94-12.75c0,0,4.2,7.49,7.5,9.9,0,0-8.08-1.11-12.73-6.91,0,0-2,9.41-4.19,12.22,0,0-3.67-32.57,26.88-33.22,0,0,19-1.33,27.81,12.66S261.09,170.33,261.09,170.33Z" style="fill: rgb(38, 50, 56); transform-origin: 234.79px 148.945px;" id="el6kz7utboodv" class="animable"></path><path d="M262.68,168.32c-.45,4.4,6.34-16.71,5.84-19.75s-8.42-17.17-22-21.75c-11.41-3.84-24,1.68-26.24,2.67a19,19,0,0,0-6.46,4.71s16.54-7.28,31.75-5C252.86,130.32,264.36,151.87,262.68,168.32Z" style="fill: rgb(255, 199, 39); transform-origin: 241.183px 147.199px;" id="el68qayslqbnr" class="animable"></path><path d="M251.76,124.7s-4.59-8.58-12.93-10c0,0-.17,8.34,2.61,11.26,1.38,1.46,7.92,2.43,8.76,1.39A15.12,15.12,0,0,0,251.76,124.7Z" style="fill: rgb(255, 199, 39); transform-origin: 245.294px 121.242px;" id="elfpreh351dfm" class="animable"></path><g id="elsujtl8yfh1"><path d="M251.76,124.71a15.64,15.64,0,0,1-1.56,2.59.35.35,0,0,1-.14.12.79.79,0,0,1-.19.11c-.06,0-.1,0-.17,0a9.26,9.26,0,0,1-3.65,0,20.46,20.46,0,0,1,1.12-3.56,5.52,5.52,0,0,1,2.65-2.13A20.47,20.47,0,0,1,251.76,124.71Z" style="fill: rgb(5, 4, 0); opacity: 0.1; transform-origin: 248.905px 124.776px;" class="animable"></path></g><path d="M253.74,126s11.8-1.08,17.27,1.79c0,0-3.44,5.91-9.39,7.06-2.66.51-10-4.72-9.54-6.07A11.93,11.93,0,0,1,253.74,126Z" style="fill: rgb(255, 199, 39); transform-origin: 261.535px 130.343px;" id="eljbq3zu3ic9" class="animable"></path><g id="elpw4nilyn58m"><path d="M256.42,125.81a6.82,6.82,0,0,1-.45,3.86,5.74,5.74,0,0,1-1.65,1.82c-1.44-1.13-2.43-2.22-2.24-2.75a11.64,11.64,0,0,1,1.66-2.77S254.79,125.87,256.42,125.81Z" style="fill: rgb(5, 4, 0); opacity: 0.1; transform-origin: 254.289px 128.65px;" class="animable"></path></g><path d="M254.8,128.7a3.85,3.85,0,1,1-1.32-5.29A3.85,3.85,0,0,1,254.8,128.7Z" style="fill: rgb(255, 199, 39); transform-origin: 251.502px 126.713px;" id="elm8efwmczbpj" class="animable"></path><path d="M257.21,170.66s6.25-10.58,11-8.43.59,17.11-4.61,19.51a5.45,5.45,0,0,1-7.51-2.36Z" style="fill: rgb(255, 196, 192); transform-origin: 263.192px 172.178px;" id="elbh4b5uboibj" class="animable"></path><path d="M266.91,166.49c.09,0,.11.1,0,.14-3.63,1.81-5.34,5.43-6.44,9.15,1-1.48,2.46-2.35,4.43-1.17.1.06,0,.22-.09.21a3.35,3.35,0,0,0-3.59,1.45,16.37,16.37,0,0,0-1.54,3.11c-.15.35-.77.22-.67-.18l0-.08C258.61,174.34,261.81,167.36,266.91,166.49Z" style="fill: rgb(38, 50, 56); transform-origin: 262.981px 173.037px;" id="el99oxogcwt4m" class="animable"></path></g><g id="freepik--Table--inject-13" class="animable" style="transform-origin: 250px 444px;"><polygon points="459.98 444 407.49 444.24 354.99 444.33 250 444.5 145.01 444.33 92.52 444.24 40.02 444 92.52 443.75 145.01 443.67 250 443.5 354.99 443.67 407.49 443.76 459.98 444" style="fill: rgb(38, 50, 56); transform-origin: 250px 444px;" id="elqz64bnwf9vr" class="animable"></polygon></g><defs>     <filter id="active" height="200%">         <feMorphology in="SourceAlpha" result="DILATED" operator="dilate" radius="2"></feMorphology>                <feFlood flood-color="#32DFEC" flood-opacity="1" result="PINK"></feFlood>        <feComposite in="PINK" in2="DILATED" operator="in" result="OUTLINE"></feComposite>        <feMerge>            <feMergeNode in="OUTLINE"></feMergeNode>            <feMergeNode in="SourceGraphic"></feMergeNode>        </feMerge>    </filter>    <filter id="hover" height="200%">        <feMorphology in="SourceAlpha" result="DILATED" operator="dilate" radius="2"></feMorphology>                <feFlood flood-color="#ff0000" flood-opacity="0.5" result="PINK"></feFlood>        <feComposite in="PINK" in2="DILATED" operator="in" result="OUTLINE"></feComposite>        <feMerge>            <feMergeNode in="OUTLINE"></feMergeNode>            <feMergeNode in="SourceGraphic"></feMergeNode>        </feMerge>            <feColorMatrix type="matrix" values="0   0   0   0   0                0   1   0   0   0                0   0   0   0   0                0   0   0   1   0 "></feColorMatrix>    </filter></defs></svg>